<?xml version="1.0" standalone="no"?>
<!DOCTYPE svg PUBLIC "-//W3C//DTD SVG 20010904//EN"
 "http://www.w3.org/TR/2001/REC-SVG-20010904/DTD/svg10.dtd">
<svg version="1.0" xmlns="http://www.w3.org/2000/svg"
 width="750.000000pt" height="750.000000pt" viewBox="0 0 750.000000 750.000000"
 preserveAspectRatio="xMidYMid meet">
<metadata>
Created by potrace 1.14, written by Peter Selinger 2001-2017
</metadata>
<g transform="translate(0.000000,750.000000) scale(0.100000,-0.100000)"
fill="#000000" stroke="none">
<path d="M5711 6167 c-6 -6 -11 -16 -11 -23 0 -6 -7 -17 -15 -24 -8 -7 -15
-18 -15 -24 0 -6 14 4 31 22 31 33 45 39 51 22 2 -5 9 -6 17 -1 10 6 6 12 -17
24 -22 10 -33 12 -41 4z"/>
<path d="M5788 6110 c-15 -21 -19 -23 -27 -10 -9 13 -11 13 -11 -2 0 -9 -8
-19 -17 -22 -10 -3 -6 -4 10 -2 24 3 27 0 21 -17 -4 -13 -2 -17 5 -13 6 4 11
3 11 -3 0 -6 -16 -13 -35 -17 -19 -3 -33 -10 -30 -14 7 -11 -20 -20 -43 -13
-25 6 -37 33 -21 44 8 5 5 10 -9 18 -28 15 -32 14 -26 -4 4 -8 1 -15 -4 -15
-6 0 -13 -10 -15 -22 -4 -23 -4 -23 -6 -1 -1 19 -5 21 -34 16 -28 -4 -37 -1
-55 22 -22 28 -26 26 -22 -9 1 -13 -3 -17 -14 -13 -9 4 -16 2 -16 -4 0 -6 -4
-8 -8 -5 -4 2 -14 1 -22 -4 -12 -7 -12 -12 3 -28 23 -25 21 -32 -6 -32 -13 0
-32 -9 -43 -21 -12 -13 -27 -19 -41 -16 -21 4 -28 -4 -24 -27 1 -5 -5 -6 -14
-2 -10 3 -18 -1 -22 -11 -5 -14 -8 -13 -14 5 -9 23 -52 31 -64 12 -4 -6 5 -10
21 -10 38 0 22 -12 -22 -17 -20 -2 -42 2 -50 8 -13 11 -19 5 -15 -15 1 -5 -5
-4 -13 4 -14 10 -16 10 -16 -6 0 -37 12 -63 26 -57 8 3 11 10 7 16 -4 6 -1 7
7 2 7 -4 16 -2 21 6 6 10 9 6 9 -13 0 -16 -4 -28 -10 -28 -5 0 -10 -4 -10 -10
0 -5 7 -7 15 -4 9 4 19 -3 26 -18 17 -39 62 -61 103 -50 36 10 71 0 41 -12 -9
-3 -28 -6 -41 -6 -36 0 -29 -24 11 -36 19 -6 35 -7 35 -3 0 4 12 6 28 3 19 -3
23 -2 13 5 -23 15 32 25 66 13 27 -10 27 -10 4 -11 -24 -1 -24 -1 -5 -16 19
-14 19 -14 -1 -16 -11 -1 -26 -2 -32 -2 -7 1 -13 -8 -13 -18 0 -10 6 -19 14
-19 8 0 17 -6 19 -12 4 -8 8 -4 13 10 3 13 12 21 18 19 6 -2 17 5 24 17 9 14
12 15 8 4 -3 -10 -9 -26 -12 -35 -3 -10 2 -4 12 12 23 41 24 41 34 25 7 -11
10 -12 10 -2 0 7 5 10 10 7 6 -3 13 0 16 8 3 8 17 13 34 12 33 -2 58 10 47 22
-5 4 -12 1 -17 -7 -6 -8 -10 -10 -10 -5 0 6 5 17 11 25 8 11 12 12 16 3 7 -18
20 -16 27 3 3 8 2 12 -4 9 -11 -7 -12 46 -1 85 4 14 18 30 31 37 18 9 20 13 8
13 -10 0 -22 9 -28 19 -15 29 -12 38 5 15 12 -16 16 -17 24 -4 8 12 12 10 20
-10 6 -17 10 -19 10 -8 1 9 5 20 11 23 6 4 7 -1 3 -12 -5 -15 -3 -16 8 -5 7 6
18 12 24 12 5 0 3 -4 -5 -10 -12 -7 -11 -10 5 -15 54 -18 75 -28 75 -37 0 -5
16 -16 35 -23 19 -8 39 -24 45 -35 12 -23 30 -27 30 -6 0 8 5 16 12 18 26 9 3
188 -24 188 -5 0 -8 7 -8 15 0 8 -4 15 -10 15 -5 0 -10 10 -10 23 l-1 22 -19
-24 c-17 -20 -18 -25 -6 -35 30 -24 64 -136 42 -136 -6 0 -5 -4 3 -9 9 -6 11
-14 4 -26 -9 -16 -10 -16 -16 0 -4 9 -11 13 -17 10 -5 -3 -10 -1 -10 4 0 6 5
11 10 11 6 0 10 8 10 19 0 14 -6 17 -27 14 -24 -3 -25 -2 -8 6 19 9 18 10 -5
11 -22 0 -23 2 -7 11 21 13 22 29 1 29 -9 0 -18 9 -21 20 -3 11 -14 20 -24 20
-10 0 -21 5 -24 10 -10 16 -28 11 -21 -6 5 -12 2 -15 -11 -9 -10 3 -30 9 -45
12 -16 3 -28 9 -28 13 0 9 51 20 92 20 28 0 34 7 40 45 2 14 -2 19 -14 17 -13
-2 -17 6 -20 40 l-3 42 -17 -24z m47 -70 c-3 -5 -12 -10 -18 -10 -7 0 -6 4 3
10 19 12 23 12 15 0z m-296 -125 l0 -20 -9 20 c-5 11 -9 29 -9 40 l0 20 9 -20
c5 -11 9 -29 9 -40z m-179 -35 c0 -5 -5 -10 -11 -10 -5 0 -7 5 -4 10 3 6 8 10
11 10 2 0 4 -4 4 -10z m190 -40 c0 -16 -4 -30 -8 -30 -5 0 -7 14 -4 30 2 17 6
30 8 30 2 0 4 -13 4 -30z m-213 -26 c-3 -3 -12 -4 -19 -1 -8 3 -5 6 6 6 11 1
17 -2 13 -5z"/>
<path d="M5692 6053 c2 -9 8 -18 15 -20 7 -3 9 3 6 16 -6 25 -26 28 -21 4z"/>
<path d="M3684 6018 c-9 -13 -3 -15 31 -8 l30 6 -28 6 c-15 3 -30 1 -33 -4z"/>
<path d="M3630 6005 c0 -9 6 -12 15 -9 8 4 15 7 15 9 0 2 -7 5 -15 9 -9 3 -15
0 -15 -9z"/>
<path d="M5331 5981 c-9 -6 -10 -11 -2 -15 6 -4 16 -4 21 -1 6 3 10 0 10 -7 0
-10 3 -9 9 2 17 26 -8 40 -38 21z"/>
<path d="M5270 5930 c0 -5 5 -10 11 -10 5 0 7 5 4 10 -3 6 -8 10 -11 10 -2 0
-4 -4 -4 -10z"/>
<path d="M3515 5886 c21 -32 27 -33 16 -4 -4 12 -14 24 -20 26 -8 3 -7 -5 4
-22z"/>
<path d="M5081 5834 c0 -11 3 -14 6 -6 3 7 2 16 -1 19 -3 4 -6 -2 -5 -13z"/>
<path d="M6041 5814 c0 -11 3 -14 6 -6 3 7 2 16 -1 19 -3 4 -6 -2 -5 -13z"/>
<path d="M5980 5690 c0 -5 4 -10 8 -10 4 0 20 -25 36 -55 15 -30 31 -57 36
-60 5 -3 7 -12 4 -19 -3 -8 -1 -17 4 -20 5 -3 12 3 15 14 3 11 1 20 -4 20 -16
0 -9 25 11 40 11 8 20 18 20 23 0 5 -6 4 -13 -2 -8 -6 -17 -8 -20 -4 -4 3 -7
1 -7 -6 0 -9 -4 -8 -15 3 -19 18 -19 26 -1 26 8 0 18 5 22 12 4 7 3 8 -4 4 -8
-4 -12 0 -12 10 0 16 -1 16 -15 -2 -14 -18 -14 -18 -9 3 5 18 3 21 -15 16 -12
-3 -21 -1 -21 6 0 6 -4 11 -10 11 -5 0 -10 -4 -10 -10z"/>
<path d="M6225 5680 c-3 -5 -1 -10 4 -10 6 0 11 5 11 10 0 6 -2 10 -4 10 -3 0
-8 -4 -11 -10z"/>
<path d="M6195 5631 c-3 -5 -1 -12 5 -16 5 -3 10 1 10 9 0 18 -6 21 -15 7z"/>
<path d="M6166 5568 c-8 -31 -8 -38 3 -38 12 0 22 43 12 53 -5 5 -11 -2 -15
-15z"/>
<path d="M6283 5465 c-7 -8 -13 -24 -13 -37 0 -17 2 -20 9 -9 7 10 30 14 88
14 l78 -1 -37 15 c-21 8 -38 20 -38 25 0 6 -7 4 -17 -3 -13 -11 -17 -11 -20
-1 -6 16 -35 15 -50 -3z"/>
<path d="M6365 5371 c-3 -5 -1 -12 5 -16 12 -7 30 2 30 16 0 12 -27 12 -35 0z"/>
<path d="M6116 5340 c7 -28 12 -35 18 -29 2 2 -2 15 -10 29 l-15 25 7 -25z"/>
<path d="M1152 5333 c-9 -4 -7 -10 8 -23 19 -16 20 -23 12 -67 -6 -26 -10 -38
-11 -26 0 12 -6 25 -12 29 -9 5 -10 -1 -5 -20 4 -17 3 -25 -3 -22 -5 4 -13 1
-16 -5 -4 -5 -13 -8 -21 -5 -17 7 -44 -3 -44 -15 0 -5 9 -9 20 -9 20 0 60 -32
60 -49 0 -5 -6 -11 -14 -14 -10 -4 -12 0 -8 15 3 14 1 19 -6 14 -18 -11 -14
-34 8 -46 15 -8 20 -8 20 1 0 27 12 -2 20 -48 7 -44 8 -41 9 38 0 48 8 105 16
129 18 52 20 110 3 110 -9 0 -8 4 2 10 12 8 11 10 -5 9 -11 0 -26 -3 -33 -6z"/>
<path d="M6192 5318 c-14 -14 -16 -28 -3 -28 9 0 24 30 18 36 -2 2 -9 -2 -15
-8z"/>
<path d="M6353 5309 c-2 -22 12 -25 20 -5 3 8 0 16 -7 19 -6 3 -13 -4 -13 -14z"/>
<path d="M6450 5322 c0 -4 9 -13 20 -19 14 -9 21 -10 26 -1 4 7 3 8 -5 4 -6
-4 -14 0 -17 8 -6 16 -24 22 -24 8z"/>
<path d="M3080 5305 c0 -11 40 -40 55 -40 19 1 95 30 95 37 0 3 -150 6 -150 3z"/>
<path d="M6420 5280 c0 -5 5 -10 10 -10 6 0 10 5 10 10 0 6 -4 10 -10 10 -5 0
-10 -4 -10 -10z"/>
<path d="M6129 5261 c0 -3 -2 -14 -4 -23 -4 -21 2 -23 18 -5 17 18 18 34 1 34
-7 0 -14 -3 -15 -6z"/>
<path d="M6183 5263 c-15 -5 -17 -23 -4 -23 5 0 11 7 15 15 3 8 4 15 3 14 -1
0 -8 -3 -14 -6z"/>
<path d="M6326 5254 c-4 -10 -1 -14 6 -12 15 5 23 28 10 28 -5 0 -13 -7 -16
-16z"/>
<path d="M6160 5211 c0 -7 -4 -10 -9 -7 -5 3 -11 0 -14 -8 -3 -8 2 -17 11 -21
9 -3 13 -3 9 1 -4 4 -2 13 5 21 6 7 8 16 4 20 -3 3 -6 1 -6 -6z"/>
<path d="M6246 5196 c-10 -16 -13 -25 -7 -22 6 4 11 2 11 -3 0 -6 -9 -11 -19
-11 -10 0 -22 -7 -25 -16 -9 -24 -6 -31 5 -11 9 15 13 16 26 5 13 -10 19 -8
39 15 27 31 34 68 10 48 -11 -10 -15 -8 -18 5 -2 15 -6 13 -22 -10z"/>
<path d="M6433 5149 c-31 -11 -29 -23 2 -15 21 5 25 3 25 -14 0 -12 5 -18 10
-15 6 3 10 1 10 -4 0 -6 4 -11 9 -11 17 0 -3 56 -22 63 -7 2 -22 1 -34 -4z"/>
<path d="M6304 5054 c5 -12 1 -14 -17 -9 -20 5 -20 5 -5 -8 11 -9 14 -18 8
-28 -5 -8 -7 -22 -4 -33 4 -10 0 -23 -7 -28 -10 -6 -7 -7 9 -3 13 4 22 2 22
-4 0 -6 -4 -11 -10 -11 -5 0 -10 -7 -10 -15 0 -8 5 -15 10 -15 6 0 10 5 10 10
0 6 8 10 18 10 14 0 15 2 3 9 -10 7 -2 8 25 4 51 -6 88 24 78 64 -6 23 -4 25
12 19 15 -6 16 -5 7 5 -10 10 -18 10 -38 -1 -14 -8 -24 -19 -21 -26 3 -8 -9
-12 -37 -12 -25 -1 -36 2 -28 7 11 7 11 16 1 45 -6 20 -16 36 -22 36 -6 0 -7
-7 -4 -16z"/>
<path d="M2580 5050 c-1 -3 -3 -27 -5 -54 -2 -27 -6 -59 -9 -72 -6 -23 -4 -24
36 -23 24 0 37 3 31 6 -24 9 -14 25 11 19 14 -3 27 -2 30 3 8 12 -51 101 -68
101 -8 0 -17 6 -19 13 -3 6 -6 10 -7 7z"/>
<path d="M2663 5033 c15 -2 27 -9 27 -14 0 -5 7 -9 15 -9 9 0 12 6 9 15 -4 10
-18 14 -43 14 -30 -2 -31 -3 -8 -6z"/>
<path d="M2730 4988 c0 -9 5 -20 10 -23 13 -8 13 5 0 25 -8 13 -10 13 -10 -2z"/>
<path d="M6440 4960 c0 -5 5 -10 10 -10 6 0 10 5 10 10 0 6 -4 10 -10 10 -5 0
-10 -4 -10 -10z"/>
<path d="M1170 4951 c0 -6 4 -13 10 -16 6 -3 7 1 4 9 -7 18 -14 21 -14 7z"/>
<path d="M2720 4939 c0 -9 48 -24 55 -17 2 2 -9 9 -25 15 -17 6 -30 7 -30 2z"/>
<path d="M6185 4940 c-3 -5 -1 -10 4 -10 6 0 11 5 11 10 0 6 -2 10 -4 10 -3 0
-8 -4 -11 -10z"/>
<path d="M6220 4930 c-12 -8 -11 -10 7 -10 12 0 25 -5 28 -10 4 -6 11 -8 16
-4 6 4 6 11 -2 20 -13 16 -28 18 -49 4z"/>
<path d="M1337 4890 c-17 -28 -21 -30 -72 -27 -30 1 -55 6 -55 10 0 5 5 5 12
1 7 -4 8 -3 4 4 -5 9 -12 8 -26 -1 -29 -17 -25 -37 8 -38 94 -4 176 2 184 13
9 16 11 -50 2 -105 -6 -33 -8 -35 -19 -20 -12 16 -13 15 -12 -10 1 -15 5 -27
9 -27 11 0 5 -84 -7 -93 -5 -4 2 -5 17 -1 21 4 39 -2 81 -30 63 -42 72 -44 55
-15 -10 17 -10 23 -1 26 15 5 5 33 -11 33 -7 0 -21 7 -32 15 -18 13 -18 14 6
9 18 -4 21 -3 11 4 -11 8 -11 10 0 15 10 4 7 12 -13 29 -25 22 -68 135 -68
180 0 17 -35 57 -50 58 -3 0 -14 -13 -23 -30z"/>
<path d="M1980 4911 c-15 -4 -26 -15 -28 -29 -4 -29 5 -28 34 4 21 21 30 36
22 33 -2 -1 -14 -4 -28 -8z"/>
<path d="M6325 4901 c-3 -5 4 -13 16 -16 28 -9 33 -2 9 13 -11 6 -21 8 -25 3z"/>
<path d="M5997 4886 c-6 -14 39 -33 51 -21 3 3 -4 8 -16 12 -12 3 -19 9 -16
14 3 5 1 9 -4 9 -6 0 -12 -6 -15 -14z"/>
<path d="M2557 4884 c-11 -11 3 -24 18 -18 8 4 12 10 9 15 -6 11 -18 12 -27 3z"/>
<path d="M5955 4860 c-3 -5 -1 -10 4 -10 6 0 11 5 11 10 0 6 -2 10 -4 10 -3 0
-8 -4 -11 -10z"/>
<path d="M1985 4850 c-3 -5 -1 -10 4 -10 6 0 11 5 11 10 0 6 -2 10 -4 10 -3 0
-8 -4 -11 -10z"/>
<path d="M1930 4770 c0 -29 2 -51 4 -49 8 8 10 88 3 95 -4 4 -7 -17 -7 -46z"/>
<path d="M6330 4780 c0 -5 5 -10 11 -10 5 0 7 5 4 10 -3 6 -8 10 -11 10 -2 0
-4 -4 -4 -10z"/>
<path d="M1230 4770 c0 -5 4 -10 9 -10 6 0 13 5 16 10 3 6 -1 10 -9 10 -9 0
-16 -4 -16 -10z"/>
<path d="M6026 4763 c-3 -8 -10 -12 -15 -9 -5 3 -14 0 -20 -8 -9 -11 -7 -19
11 -38 13 -14 31 -27 40 -31 11 -4 16 -14 13 -26 -2 -13 5 -28 21 -40 30 -23
37 -67 11 -65 -13 2 -17 -5 -15 -25 2 -14 9 -32 16 -40 11 -12 11 -15 0 -22
-10 -7 -10 -9 2 -10 8 0 4 -5 -10 -9 -24 -8 -24 -8 -2 -9 24 -1 30 -17 10 -24
-7 -2 2 -7 20 -12 21 -4 38 -3 45 4 8 8 7 11 -3 11 -13 0 -13 2 0 10 12 8 10
10 -8 10 -13 0 -20 4 -17 10 3 6 1 10 -4 10 -6 0 -11 5 -11 11 0 7 11 8 30 4
23 -5 30 -3 30 9 0 9 -11 18 -25 22 -43 11 -28 26 21 20 57 -6 74 0 74 28 0
12 5 27 11 33 15 15 3 63 -16 63 -8 0 -19 8 -24 19 -14 25 -96 29 -87 4 5 -11
2 -14 -10 -9 -8 3 -20 6 -25 6 -5 0 -9 5 -9 10 0 6 6 10 14 10 7 0 19 6 25 14
10 12 7 14 -18 10 -33 -6 -85 21 -75 38 4 6 23 7 45 4 51 -8 50 9 0 22 -32 8
-41 7 -45 -5z m179 -153 c17 -4 22 -8 13 -9 -11 -1 -15 -6 -12 -16 5 -11 0
-12 -26 -5 -17 5 -37 7 -45 4 -7 -3 -16 -1 -20 5 -3 6 2 11 12 11 15 0 16 2 3
10 -11 7 -8 9 15 9 17 -1 44 -5 60 -9z m-40 -40 c3 -5 2 -10 -4 -10 -5 0 -13
5 -16 10 -3 6 -2 10 4 10 5 0 13 -4 16 -10z"/>
<path d="M6120 4756 c0 -13 80 -60 88 -51 2 2 -5 15 -15 29 -16 20 -23 22 -33
13 -10 -10 -12 -8 -7 6 5 12 1 17 -13 17 -11 0 -20 -6 -20 -14z"/>
<path d="M4510 4735 c0 -3 9 -15 20 -27 15 -16 20 -18 20 -7 0 8 -5 20 -12 27
-12 12 -28 16 -28 7z"/>
<path d="M1940 4690 c0 -5 5 -10 11 -10 5 0 7 5 4 10 -3 6 -8 10 -11 10 -2 0
-4 -4 -4 -10z"/>
<path d="M2540 4640 c0 -5 5 -10 11 -10 5 0 7 5 4 10 -3 6 -8 10 -11 10 -2 0
-4 -4 -4 -10z"/>
<path d="M2406 4573 c-4 -9 -1 -21 5 -27 9 -8 10 -8 5 2 -4 7 -2 19 4 27 7 9
8 15 2 15 -5 0 -13 -8 -16 -17z"/>
<path d="M1375 4550 c-6 -10 6 -14 38 -10 16 1 92 -50 108 -74 4 -4 12 -5 18
-2 6 4 11 0 11 -8 0 -9 5 -16 11 -16 5 0 7 5 4 10 -9 14 8 13 23 -2 7 -7 12
-8 12 -2 0 5 -23 23 -51 39 -125 74 -160 87 -174 65z"/>
<path d="M2290 4520 c-12 -7 -12 -12 0 -35 11 -21 15 -23 22 -10 5 8 6 20 2
27 -4 7 -3 8 4 4 7 -4 12 -1 12 8 0 18 -17 20 -40 6z"/>
<path d="M1585 4500 c3 -5 13 -10 21 -10 8 0 12 5 9 10 -3 6 -13 10 -21 10 -8
0 -12 -4 -9 -10z"/>
<path d="M2211 4460 c14 -39 29 -39 26 0 -1 21 -7 30 -19 30 -15 0 -15 -4 -7
-30z"/>
<path d="M4321 4474 c0 -11 3 -14 6 -6 3 7 2 16 -1 19 -3 4 -6 -2 -5 -13z"/>
<path d="M5934 4454 c-18 -14 -18 -15 4 -4 12 6 22 13 22 15 0 8 -5 6 -26 -11z"/>
<path d="M4155 4445 c-22 -8 -33 -14 -25 -15 8 -1 23 -3 33 -5 9 -2 22 5 27
16 6 10 9 19 8 18 -2 -1 -21 -7 -43 -14z"/>
<path d="M5992 4403 c-24 -8 -41 -17 -39 -19 4 -5 97 26 97 32 0 6 -11 4 -58
-13z"/>
<path d="M4425 4392 c-51 -17 -57 -26 -50 -75 4 -26 11 -47 16 -47 5 0 9 5 9
10 0 6 14 10 30 10 20 0 30 -5 30 -15 0 -11 -12 -15 -44 -15 -24 0 -60 -7 -81
-16 -28 -12 -36 -12 -32 -2 2 7 10 12 16 11 6 -2 11 8 11 22 0 21 -19 38 -20
18 -1 -17 -61 -73 -83 -78 -21 -6 -26 -2 -32 22 l-7 28 -13 -25 c-20 -35 -18
-50 6 -50 16 0 19 -4 14 -20 -5 -17 -2 -20 22 -20 30 0 53 -16 53 -34 0 -6 -5
-3 -11 7 -5 9 -14 17 -19 17 -13 0 -13 -67 -1 -75 5 -3 8 -20 6 -38 -4 -34 9
-59 37 -70 11 -4 15 -12 12 -22 -4 -10 0 -15 10 -15 10 0 16 -9 16 -25 0 -22
-4 -25 -33 -25 -18 0 -43 7 -55 16 -12 8 -27 12 -33 8 -11 -6 53 -43 77 -44 6
0 33 -9 58 -21 26 -11 53 -18 61 -16 7 3 17 1 22 -4 12 -12 103 -39 103 -30 0
4 -5 12 -12 19 -17 17 -2 15 26 -3 23 -15 56 -11 56 7 0 5 9 7 19 3 21 -6 38
10 21 20 -6 4 -26 -2 -45 -13 -28 -17 -34 -18 -39 -6 -3 8 0 14 7 13 37 -4
107 66 107 106 0 9 7 18 15 21 8 4 12 10 9 15 -3 5 -7 30 -9 55 -9 97 -50 174
-118 219 -17 11 -32 26 -33 33 -1 7 0 8 3 2 8 -16 21 -12 28 11 6 17 9 18 23
7 15 -12 16 -11 3 5 -11 13 -17 15 -28 6 -18 -15 -26 -6 -27 30 -1 25 -6 32
-28 36 -15 4 -33 3 -39 0 -8 -6 -8 -2 0 14 13 23 6 25 -34 13z m65 -245 c0
-12 -4 -28 -9 -36 -7 -11 -10 -10 -18 4 -7 11 -13 14 -17 7 -4 -6 -13 -9 -21
-7 -53 17 -52 15 -30 28 29 17 79 34 88 30 4 -2 7 -14 7 -26z m-30 -317 c0 -5
-5 -10 -11 -10 -5 0 -7 5 -4 10 3 6 8 10 11 10 2 0 4 -4 4 -10z m13 -27 c-7
-2 -19 -2 -25 0 -7 3 -2 5 12 5 14 0 19 -2 13 -5z"/>
<path d="M3099 4295 c0 -11 -3 -14 -6 -7 -7 18 -23 15 -24 -5 0 -14 -2 -13 -9
5 -11 26 -25 29 -34 5 -6 -15 -8 -15 -16 -3 -8 12 -10 12 -10 1 0 -7 -6 -11
-15 -7 -9 3 -15 0 -15 -9 0 -8 9 -15 19 -15 11 0 23 -5 26 -11 8 -12 -23 -49
-41 -49 -7 0 -16 -5 -20 -12 -5 -7 -3 -8 6 -3 14 9 7 -22 -16 -67 -16 -31 -19
-88 -4 -88 6 0 10 -9 10 -20 0 -13 -7 -20 -19 -20 -14 0 -17 -6 -13 -25 2 -14
8 -25 12 -25 5 0 6 10 2 23 l-5 22 22 -20 c15 -13 21 -27 18 -42 -2 -13 -1
-23 4 -23 4 0 11 -16 15 -35 7 -39 10 -42 47 -49 14 -2 39 -14 56 -27 21 -16
37 -20 56 -15 22 6 26 4 22 -8 -6 -14 -3 -14 26 -2 67 29 87 39 87 48 0 5 11
20 25 33 20 21 21 25 7 25 -10 1 -1 9 21 21 24 12 37 27 37 39 0 11 3 20 8 20
4 0 13 9 20 21 8 12 9 18 3 14 -15 -9 -13 6 4 29 8 10 12 23 9 27 -3 5 -1 9 5
9 6 0 8 7 5 15 -4 8 -10 12 -15 9 -5 -3 -8 3 -7 13 4 53 -3 69 -38 88 -48 26
-86 62 -104 100 -12 26 -17 30 -27 20 -10 -11 -10 -15 0 -19 7 -4 1 -4 -13 -1
-14 3 -40 7 -58 9 -36 4 -57 16 -29 16 10 0 17 4 17 10 0 5 -11 9 -25 8 -17
-2 -25 -8 -26 -23z m151 -129 c17 -21 9 -61 -13 -60 -9 1 -17 -1 -17 -5 0 -3
-24 -7 -54 -8 -41 -2 -55 1 -60 13 -7 19 1 34 18 34 7 0 21 9 31 20 21 24 77
27 95 6z"/>
<path d="M4637 4275 c-3 -16 0 -24 7 -22 12 4 18 47 6 47 -4 0 -10 -11 -13
-25z"/>
<path d="M5615 4292 c-49 -8 -65 -13 -65 -23 0 -6 6 -6 19 1 13 7 22 7 26 0 6
-10 -14 -15 -49 -11 -23 2 -58 -28 -50 -41 8 -13 -39 12 -47 24 -3 5 -9 2 -12
-7 -5 -11 -3 -14 5 -9 8 5 9 2 5 -10 -6 -14 -3 -16 13 -11 11 4 20 2 20 -4 0
-6 -6 -11 -14 -11 -8 0 -18 -5 -22 -11 -4 -8 1 -9 17 -4 24 8 24 8 5 -14 -11
-11 -16 -21 -11 -21 4 0 1 -7 -6 -17 -13 -15 -12 -15 9 -4 12 7 20 16 17 21
-3 4 4 6 15 3 16 -4 19 -2 14 11 -3 9 -1 16 6 16 6 0 9 4 6 9 -3 4 6 7 19 5
28 -3 32 5 13 25 -8 7 3 5 25 -5 35 -17 38 -17 52 -1 8 9 10 12 3 7 -24 -20
-27 -9 -7 30 24 45 22 57 -6 52z"/>
<path d="M2921 4274 c0 -11 3 -14 6 -6 3 7 2 16 -1 19 -3 4 -6 -2 -5 -13z"/>
<path d="M2721 4254 c0 -11 3 -14 6 -6 3 7 2 16 -1 19 -3 4 -6 -2 -5 -13z"/>
<path d="M2844 4209 c4 -27 3 -49 -2 -49 -5 0 -9 -14 -9 -31 0 -28 2 -30 13
-14 8 10 11 22 8 26 -3 5 1 9 9 9 8 0 22 11 31 25 15 23 15 26 1 31 -8 3 -15
14 -15 24 0 10 -10 20 -21 23 -20 5 -21 3 -15 -44z"/>
<path d="M4146 4233 c-6 -14 -5 -15 5 -6 7 7 10 15 7 18 -3 3 -9 -2 -12 -12z"/>
<path d="M2667 4211 c-17 -18 -17 -19 3 -24 16 -4 20 0 20 19 0 28 0 28 -23 5z"/>
<path d="M2630 4180 c0 -5 5 -10 11 -10 5 0 7 5 4 10 -3 6 -8 10 -11 10 -2 0
-4 -4 -4 -10z"/>
<path d="M1760 4030 c-8 -5 -10 -10 -5 -10 6 0 17 5 25 10 8 5 11 10 5 10 -5
0 -17 -5 -25 -10z"/>
<path d="M1966 4024 c-3 -9 -5 -34 -5 -57 1 -23 3 -33 6 -22 3 11 9 24 14 30
12 12 12 65 0 65 -5 0 -12 -7 -15 -16z"/>
<path d="M2920 4010 c0 -5 5 -10 11 -10 5 0 7 5 4 10 -3 6 -8 10 -11 10 -2 0
-4 -4 -4 -10z"/>
<path d="M2646 3965 c4 -8 8 -15 10 -15 2 0 4 7 4 15 0 8 -4 15 -10 15 -5 0
-7 -7 -4 -15z"/>
<path d="M2670 3959 c0 -5 5 -7 10 -4 6 3 10 8 10 11 0 2 -4 4 -10 4 -5 0 -10
-5 -10 -11z"/>
<path d="M4045 3947 c-10 -23 -5 -27 38 -34 32 -5 35 -3 30 15 -3 11 -12 23
-20 26 -11 4 -13 2 -9 -9 3 -9 0 -15 -9 -15 -7 0 -15 8 -18 18 -4 16 -4 16
-12 -1z"/>
<path d="M3898 3933 c7 -3 16 -2 19 1 4 3 -2 6 -13 5 -11 0 -14 -3 -6 -6z"/>
<path d="M3960 3929 c0 -5 5 -7 10 -4 6 3 10 8 10 11 0 2 -4 4 -10 4 -5 0 -10
-5 -10 -11z"/>
<path d="M3998 3923 c7 -3 16 -2 19 1 4 3 -2 6 -13 5 -11 0 -14 -3 -6 -6z"/>
<path d="M2765 3890 c3 -5 10 -10 16 -10 5 0 9 5 9 10 0 6 -7 10 -16 10 -8 0
-12 -4 -9 -10z"/>
<path d="M4663 3885 c-29 -20 -31 -40 -3 -25 13 7 20 7 20 1 0 -7 9 -7 25 1
13 6 21 16 18 21 -5 8 -8 7 -11 -1 -5 -17 -20 -15 -24 3 -3 14 -5 14 -25 0z"/>
<path d="M5269 3862 c-25 -29 -31 -42 -20 -42 6 0 17 14 26 30 18 34 16 38 -6
12z"/>
<path d="M4770 3839 c0 -5 5 -7 10 -4 6 3 10 8 10 11 0 2 -4 4 -10 4 -5 0 -10
-5 -10 -11z"/>
<path d="M4860 3840 c0 -5 5 -10 11 -10 5 0 7 5 4 10 -3 6 -8 10 -11 10 -2 0
-4 -4 -4 -10z"/>
<path d="M5020 3839 c0 -5 5 -7 10 -4 6 3 10 8 10 11 0 2 -4 4 -10 4 -5 0 -10
-5 -10 -11z"/>
<path d="M5519 3821 c-27 -30 -32 -41 -15 -35 9 3 16 10 16 15 0 5 6 9 14 9 7
0 19 7 26 15 19 23 -20 18 -41 -4z"/>
<path d="M4641 3796 c-8 -10 -9 -16 -1 -21 5 -3 10 0 10 9 0 8 6 17 13 19 7 4
8 6 1 6 -6 1 -17 -5 -23 -13z"/>
<path d="M5510 3759 c0 -5 5 -7 10 -4 6 3 10 8 10 11 0 2 -4 4 -10 4 -5 0 -10
-5 -10 -11z"/>
<path d="M1898 3748 c-16 -5 -28 -14 -28 -19 0 -6 4 -7 10 -4 5 3 22 -2 37
-12 28 -17 28 -17 11 3 -14 16 -15 23 -6 32 14 14 12 14 -24 0z"/>
<path d="M5036 3724 c-9 -24 -4 -24 18 -3 16 16 17 19 4 19 -9 0 -19 -7 -22
-16z"/>
<path d="M5475 3700 c-30 -31 -28 -56 3 -27 9 10 28 26 42 37 24 18 24 19 4
20 -11 0 -33 -13 -49 -30z"/>
<path d="M2190 3710 c-8 -5 -10 -10 -5 -10 6 0 17 5 25 10 8 5 11 10 5 10 -5
0 -17 -5 -25 -10z"/>
<path d="M2012 3693 c-5 -10 -6 -27 -1 -38 4 -11 8 -15 8 -10 2 19 21 -20 21
-42 0 -12 5 -25 11 -28 17 -11 22 2 9 25 -8 16 -9 25 0 35 9 11 7 16 -8 24
-14 7 -18 17 -15 31 7 25 -13 27 -25 3z"/>
<path d="M1947 3682 c-10 -10 -14 -22 -10 -25 4 -4 -10 -5 -30 -3 -20 3 -39 1
-42 -4 -8 -13 42 -143 62 -157 15 -11 22 -8 52 23 31 32 36 34 42 17 5 -16 7
-16 13 5 11 34 -8 53 -39 38 -14 -6 -25 -19 -25 -28 0 -10 -4 -18 -10 -18 -9
0 -11 20 -10 109 0 13 5 30 11 38 18 21 4 26 -14 5z"/>
<path d="M3710 3683 c-30 -7 -68 -23 -85 -33 -16 -11 -45 -27 -64 -36 -18 -8
-35 -24 -38 -35 -3 -10 -9 -19 -13 -19 -5 0 -18 -16 -30 -35 -19 -31 -21 -45
-16 -100 3 -36 12 -81 20 -100 19 -45 75 -125 100 -144 10 -8 26 -22 35 -33 8
-10 20 -18 25 -18 5 0 17 -7 27 -16 9 -8 23 -17 31 -18 7 -1 34 -16 60 -32
l47 -29 3 -123 c2 -68 1 -126 -2 -128 -2 -3 -5 -24 -6 -47 -2 -87 -12 -104
-73 -133 -71 -34 -147 -52 -187 -44 -16 4 -42 6 -57 6 -15 -1 -27 2 -27 6 0 4
-6 8 -14 8 -24 0 -90 34 -133 67 -43 34 -86 111 -100 177 -4 22 -14 42 -22 44
-11 4 -13 -5 -8 -46 7 -63 45 -138 88 -177 30 -27 106 -78 119 -81 3 0 18 -6
34 -13 75 -31 251 -27 313 7 12 7 31 12 42 12 11 0 24 7 29 16 8 15 11 15 36
-1 14 -10 26 -14 26 -10 0 4 7 1 17 -6 9 -8 19 -13 22 -13 3 1 17 -3 31 -8 41
-15 159 -16 223 -2 150 35 279 164 302 302 7 42 6 43 -14 33 -11 -7 -20 -15
-20 -19 1 -4 0 -9 -1 -12 -1 -3 -3 -19 -5 -37 -3 -35 -50 -123 -65 -123 -6 0
-10 -6 -10 -13 0 -8 -11 -20 -25 -27 -14 -7 -25 -17 -25 -22 0 -4 -9 -8 -19
-8 -11 0 -26 -7 -34 -15 -8 -8 -17 -11 -21 -8 -3 4 -6 2 -6 -4 0 -10 -39 -23
-90 -29 -14 -2 -35 -6 -47 -9 -22 -5 -155 33 -161 46 -2 5 -9 6 -17 3 -7 -3
-20 5 -29 18 -12 19 -14 53 -10 198 3 96 5 183 5 193 0 10 8 17 20 17 10 0 19
5 19 10 0 6 9 10 20 10 20 0 100 45 100 56 0 4 -7 0 -17 -7 -14 -12 -16 -12
-11 1 2 8 15 16 27 18 12 2 25 10 28 18 3 8 9 14 14 14 25 0 113 113 139 180
25 63 29 173 8 199 -8 9 -19 28 -26 44 -8 19 -29 35 -69 52 -32 14 -66 30 -75
35 -35 19 -156 41 -218 39 -36 -1 -90 -8 -120 -16z"/>
<path d="M2750 3636 c0 -19 27 -39 40 -31 8 5 6 13 -6 26 -20 22 -34 25 -34 5z"/>
<path d="M5438 3638 c9 -9 15 -9 24 0 9 9 7 12 -12 12 -19 0 -21 -3 -12 -12z"/>
<path d="M4682 3582 c23 -44 56 -126 86 -212 34 -99 36 -113 38 -245 2 -109
-1 -155 -15 -206 -17 -65 -66 -164 -100 -204 -10 -11 -40 -56 -66 -100 -27
-44 -64 -96 -82 -116 -41 -45 -41 -52 -3 -33 17 9 30 20 30 25 0 17 71 119 80
114 4 -3 17 6 28 20 11 14 25 25 31 25 6 0 11 6 11 13 1 7 6 4 15 -7 15 -20
40 -12 31 10 -3 8 -2 14 2 14 4 0 8 12 9 27 0 15 6 29 12 31 5 2 7 10 4 18 -3
8 0 14 6 14 11 0 15 -13 12 -37 -1 -7 5 -10 13 -7 11 4 13 0 9 -15 -6 -24 0
-26 29 -10 28 15 72 3 64 -18 -4 -9 -1 -20 5 -24 9 -5 7 -12 -6 -26 -16 -15
-18 -16 -13 -1 4 10 1 19 -10 23 -16 6 -16 7 1 20 13 9 15 14 5 18 -7 2 -20
-10 -28 -27 -14 -28 -20 -31 -60 -31 -31 -1 -58 -9 -87 -28 -24 -15 -49 -27
-58 -27 -11 0 -15 -11 -15 -40 0 -22 -4 -40 -10 -40 -5 0 -10 6 -10 13 -1 6
-7 -6 -15 -27 -14 -39 -29 -56 -52 -56 -7 0 -13 -10 -13 -23 0 -13 -5 -28 -11
-34 -8 -8 -5 -14 10 -22 12 -7 21 -18 21 -26 0 -8 9 -15 20 -15 13 0 20 -7 20
-20 0 -14 -6 -19 -22 -17 -18 2 -23 -3 -23 -25 -1 -16 3 -28 7 -28 4 0 8 5 8
10 0 6 6 10 13 10 7 0 18 14 25 32 11 31 12 31 27 13 14 -20 14 -20 15 3 0 12
6 22 14 22 8 0 22 7 31 16 15 15 18 15 38 -7 17 -18 18 -21 4 -16 -18 7 -24
-8 -7 -18 16 -10 11 -25 -8 -25 -10 0 -27 -6 -38 -14 -13 -10 -25 -11 -35 -5
-23 15 -39 10 -39 -11 0 -17 7 -20 43 -21 23 -1 45 -1 50 0 4 0 7 -4 7 -10 0
-8 -20 -10 -69 -5 -73 7 -81 5 -132 -48 -14 -15 -16 -23 -8 -33 9 -10 7 -13
-7 -13 -13 0 -15 -3 -7 -11 14 -14 42 9 35 29 -2 6 1 12 7 12 6 0 11 -6 11
-12 0 -9 2 -10 8 -2 8 13 62 22 162 28 62 4 64 4 30 -8 -22 -9 -43 -10 -58 -5
-35 13 -37 11 -12 -11 15 -13 31 -18 44 -14 17 4 18 3 6 -5 -9 -7 -11 -14 -5
-18 6 -5 11 -18 13 -31 3 -21 1 -22 -17 -12 -12 6 -21 15 -21 20 0 6 -5 10
-11 10 -5 0 -7 -6 -3 -12 6 -10 5 -10 -7 -2 -8 7 -26 11 -41 9 -16 -2 -28 1
-28 7 0 6 -6 5 -15 -2 -9 -7 -29 -13 -46 -14 -16 -1 -34 -8 -40 -16 -8 -12 -9
-12 -7 4 2 10 -3 21 -11 24 -9 3 -11 0 -6 -9 5 -8 4 -11 -1 -6 -5 5 -9 14 -9
20 0 6 -9 16 -20 22 -36 19 -26 42 17 36 11 -1 2 30 -11 38 -9 6 -8 11 3 21
22 17 9 33 -15 19 -11 -5 -25 -8 -32 -6 -7 3 2 10 20 17 17 6 34 18 37 26 3 7
12 11 20 8 8 -3 25 1 38 10 l22 16 -28 0 c-21 0 -27 4 -22 15 3 10 -1 15 -13
15 -15 0 -18 -5 -14 -21 5 -18 3 -20 -16 -14 -22 7 -31 -10 -8 -18 6 -2 -7 -7
-30 -11 -37 -7 -41 -10 -40 -34 2 -27 -15 -44 -19 -20 -1 7 -6 24 -12 38 l-9
25 -17 -34 c-10 -18 -15 -35 -12 -39 3 -3 6 -2 6 3 0 4 6 2 14 -5 8 -6 12 -18
9 -27 -5 -12 -1 -14 17 -8 14 5 20 3 16 -3 -3 -6 0 -13 6 -15 10 -4 9 -8 -2
-16 -11 -7 -17 -6 -24 7 -8 15 -10 14 -16 -3 -6 -18 -100 -51 -100 -35 0 5 11
11 24 14 25 6 39 35 26 56 -4 7 -12 0 -20 -21 -12 -27 -15 -29 -20 -13 -6 16
-9 15 -26 -11 -20 -32 -34 -45 -48 -45 -5 0 -1 9 9 20 11 12 13 20 6 20 -7 0
-9 5 -6 10 4 6 10 8 15 5 5 -3 11 5 15 17 4 13 9 31 11 41 4 11 0 17 -10 17
-10 0 -16 9 -16 21 0 16 4 19 20 14 24 -8 68 14 51 25 -9 5 -9 9 3 13 10 4 16
1 16 -9 0 -8 5 -12 10 -9 6 3 10 0 11 -7 0 -7 4 -3 9 10 5 12 14 22 21 22 6 0
9 7 5 15 -4 10 1 14 17 12 15 -1 21 3 19 12 -2 11 0 12 10 4 38 -31 97 3 85
49 -6 23 26 64 42 54 5 -4 12 -2 15 3 5 8 -24 21 -50 21 -7 0 -26 -14 -43 -32
-22 -23 -28 -35 -20 -44 8 -9 5 -11 -9 -7 -13 3 -41 -10 -78 -35 -33 -22 -83
-52 -112 -67 -29 -15 -55 -31 -58 -36 -3 -5 -9 -7 -13 -4 -5 2 -7 -6 -6 -19 2
-19 -1 -22 -21 -18 -27 5 -57 -15 -47 -32 3 -6 2 -7 -3 -3 -5 5 -9 16 -9 24 0
9 -6 18 -13 20 -7 3 -10 -1 -6 -11 4 -11 1 -16 -11 -16 -9 0 -13 5 -9 11 5 8
-1 10 -18 6 -14 -4 -58 -11 -98 -17 -40 -6 -77 -13 -82 -16 -6 -4 -14 0 -19 7
-7 11 -13 9 -29 -11 -23 -30 -25 -44 -5 -36 17 6 21 -9 5 -19 -6 -4 -8 -11 -4
-16 3 -5 10 -6 16 -3 6 4 8 2 5 -4 -4 -5 -17 -8 -30 -5 -15 3 -12 -1 11 -13
17 -9 32 -23 32 -31 0 -9 -18 -2 -55 22 -31 19 -62 35 -71 35 -9 0 -12 5 -8
12 4 6 3 8 -4 4 -6 -3 -13 -2 -17 3 -3 6 -12 8 -21 4 -10 -4 1 -13 33 -28 26
-13 44 -24 40 -24 -4 -1 -21 6 -37 14 -35 18 -38 10 -10 -25 24 -31 28 -64 4
-34 -15 18 -15 18 -10 -5 l5 -23 -22 19 c-12 11 -31 23 -42 27 -19 7 -19 6 1
-16 33 -36 37 -47 14 -41 -11 3 -20 10 -20 15 0 11 -77 5 -90 -8 -5 -5 -10
-24 -12 -42 -1 -17 -6 -32 -10 -32 -4 0 -8 -8 -9 -17 0 -14 -2 -15 -6 -3 -3 8
-10 18 -15 21 -5 3 -4 17 2 33 5 15 11 45 12 66 1 32 4 37 22 32 15 -3 11 3
-13 22 -38 29 -61 35 -41 11 7 -9 10 -19 6 -22 -4 -4 -10 -2 -14 4 -4 6 -20
15 -36 19 -21 5 -27 4 -22 -5 4 -6 2 -11 -3 -11 -6 0 -11 -8 -12 -17 0 -13 -4
-10 -13 9 l-12 27 -13 -22 c-13 -19 -15 -20 -20 -4 -3 9 -5 37 -3 62 4 40 6
44 23 34 10 -5 19 -16 19 -23 0 -8 10 -13 25 -12 31 1 38 20 8 24 -12 2 -24
10 -27 19 -5 13 0 15 34 10 35 -4 40 -3 35 12 -4 15 0 17 26 13 22 -3 30 -1
25 7 -4 6 -1 11 8 11 24 0 27 -15 6 -30 -10 -8 -17 -18 -14 -22 3 -5 12 -4 20
3 11 9 14 9 14 -1 0 -7 7 -10 16 -6 8 3 12 2 9 -4 -3 -6 1 -10 9 -10 9 0 16 6
16 14 0 20 43 24 61 6 8 -9 14 -20 12 -26 -2 -5 10 -9 27 -10 35 -1 30 11 -13
31 -31 14 -30 15 33 9 47 -4 61 -2 50 5 -8 6 -28 11 -45 11 -16 0 -72 11 -123
24 -51 12 -95 19 -98 15 -2 -5 -11 -6 -19 -3 -8 4 -13 10 -10 14 3 5 -16 20
-43 33 -47 24 -81 23 -96 -1 -8 -14 25 -25 38 -12 5 5 19 10 31 9 19 0 19 -1
-2 -9 -14 -6 -21 -15 -17 -24 6 -15 -7 -21 -58 -30 -18 -3 -28 0 -28 7 -1 15
-50 52 -50 37 0 -5 -8 -10 -17 -9 -11 0 -13 3 -5 6 8 3 5 10 -10 22 l-21 18
31 15 c34 18 51 12 24 -8 -9 -7 -14 -15 -11 -19 4 -3 15 2 24 12 10 10 30 23
44 29 l25 10 -49 34 c-109 75 -265 212 -265 234 0 4 -17 30 -37 59 -45 62 -73
116 -112 215 l-28 74 -7 -36 c-4 -20 -4 -41 -1 -46 3 -6 -3 -10 -13 -10 -11 0
-25 -7 -32 -15 -10 -13 -10 -19 4 -33 9 -10 16 -24 16 -30 0 -16 -52 -53 -67
-48 -7 3 -13 1 -13 -4 0 -6 -8 -10 -17 -11 -11 0 -13 -3 -5 -6 6 -2 10 -9 6
-14 -3 -5 -2 -18 1 -29 7 -23 45 -27 45 -5 0 8 3 15 8 16 4 0 22 2 41 4 33 3
33 3 28 -34 -6 -35 -6 -35 8 -11 8 14 14 19 15 13 0 -7 7 -13 15 -13 9 0 12
-6 9 -15 -4 -8 -1 -22 6 -30 8 -10 9 -15 2 -15 -6 0 -9 -7 -6 -15 4 -8 1 -15
-5 -15 -6 0 -10 -15 -10 -32 1 -22 3 -26 6 -12 4 22 43 65 43 48 0 -5 16 -18
35 -28 31 -17 34 -21 21 -35 -20 -22 -16 -63 6 -79 39 -28 18 -39 -34 -17 -13
5 -18 2 -18 -9 0 -21 30 -56 48 -56 10 0 12 -7 8 -24 -10 -42 10 -38 23 4 7
23 18 40 26 40 8 0 15 5 15 10 0 6 7 10 16 10 14 0 14 -2 0 -15 -8 -9 -13 -22
-9 -30 3 -9 0 -22 -7 -30 -14 -17 -14 -17 18 -20 16 -2 21 2 18 11 -8 21 12
17 23 -4 6 -10 6 -24 1 -32 -5 -8 -6 -18 -4 -22 3 -5 -1 -11 -9 -14 -13 -5
-13 -11 2 -45 10 -24 23 -39 34 -39 21 0 23 38 2 46 -10 4 -15 20 -15 44 0 21
7 43 15 50 13 11 15 7 15 -26 0 -29 3 -35 10 -24 5 8 10 11 10 5 0 -5 5 -2 11
8 20 34 27 16 22 -55 -5 -78 -17 -105 -34 -75 -11 18 -59 24 -59 6 0 -5 4 -7
10 -4 6 4 7 -1 3 -10 -3 -10 -1 -20 4 -24 5 -3 13 -19 17 -36 6 -28 5 -29 -9
-11 -13 17 -15 18 -15 3 0 -27 -17 -20 -31 12 -7 16 -17 27 -21 25 -4 -3 -8
-2 -8 3 -1 20 -12 88 -15 91 -2 2 -21 -13 -43 -32 -38 -35 -60 -47 -47 -26 3
6 2 10 -4 10 -5 0 -11 7 -13 16 -3 13 -5 13 -23 -1 -17 -14 -17 -16 -2 -11 31
10 18 -12 -14 -23 -17 -6 -28 -15 -25 -20 3 -5 -1 -11 -9 -15 -8 -3 -15 0 -15
6 0 7 -4 7 -14 -1 -9 -7 -17 -8 -20 -2 -7 10 -46 3 -46 -9 0 -4 -7 -11 -16
-14 -23 -9 -54 21 -54 51 0 21 -3 23 -22 17 -50 -15 -176 -3 -130 13 14 6 16
23 2 23 -6 0 -27 -11 -48 -23 -36 -23 -38 -23 -56 -5 -33 31 -57 20 -70 -34
-5 -24 -3 -28 16 -28 23 -1 23 -1 3 -16 -16 -12 -17 -16 -6 -23 19 -12 5 -62
-19 -68 -11 -3 -20 -9 -20 -14 0 -5 -10 -10 -22 -10 -18 -1 -19 -2 -5 -6 10
-2 16 -10 15 -16 -1 -7 15 -38 35 -70 27 -42 42 -57 54 -53 11 5 14 2 9 -11
-6 -15 -5 -16 5 -5 7 6 21 12 31 12 10 0 18 5 18 10 0 6 12 10 26 10 20 0 24
4 19 19 -3 11 -1 22 5 26 6 3 10 -3 10 -14 0 -12 5 -21 10 -21 13 0 13 -47 -1
-52 -12 -4 -1 -38 13 -38 6 0 8 6 5 14 -3 7 -1 18 5 24 13 13 28 0 45 -40 14
-31 33 -37 33 -11 0 9 3 13 7 10 3 -4 13 -1 21 6 10 7 13 8 9 1 -4 -7 0 -17 8
-24 7 -6 11 -18 8 -26 -6 -16 32 -20 42 -4 4 6 11 7 17 4 7 -4 6 -9 -2 -14
-17 -10 -3 -30 21 -30 21 0 26 15 7 24 -7 3 -3 3 10 0 12 -3 22 -1 22 5 0 6
-6 11 -13 11 -7 0 -14 14 -15 31 -3 37 7 57 19 38 7 -11 9 -9 7 6 -3 46 2 65
20 65 9 0 13 -4 7 -8 -5 -4 -11 -20 -12 -37 l-2 -30 19 24 c19 22 20 22 20 3
0 -12 -5 -24 -10 -27 -6 -4 -8 -11 -4 -16 3 -6 -3 -13 -15 -16 -22 -6 -27 -18
-11 -28 6 -3 10 0 10 7 0 9 3 9 10 -2 6 -9 10 -11 10 -3 0 7 7 10 15 7 11 -5
15 1 15 20 0 14 5 26 10 26 6 0 10 8 10 18 0 14 -2 15 -10 2 -16 -26 -23 -2
-9 32 8 18 14 36 14 40 0 3 5 10 10 15 6 4 7 4 3 -1 -4 -4 0 -15 8 -23 8 -8
12 -18 9 -23 -3 -4 5 -6 17 -3 18 4 20 2 8 -6 -8 -5 -11 -13 -7 -17 3 -4 13
-1 22 6 21 17 31 5 14 -17 -12 -15 -12 -16 3 -10 11 4 18 0 21 -11 3 -12 5 -9
6 7 1 15 6 21 15 18 8 -3 16 2 19 14 3 10 12 19 21 19 12 0 14 -7 10 -29 -5
-25 -2 -29 22 -35 22 -6 31 -3 46 16 22 28 23 47 3 54 -20 8 -19 20 1 28 12 4
15 2 10 -9 -5 -14 5 -20 27 -16 5 1 5 -3 2 -10 -8 -11 22 -43 43 -45 28 -2 32
-5 32 -19 0 -10 -7 -15 -17 -13 -13 2 -19 -5 -21 -25 -4 -34 17 -65 29 -45 7
10 9 9 9 -4 0 -9 5 -18 11 -20 6 -2 11 -22 11 -45 -1 -43 13 -58 43 -47 13 6
20 -6 16 -28 0 -5 8 -8 19 -8 18 0 20 5 16 52 -2 29 -9 54 -15 56 -6 2 -11 10
-11 17 0 8 -10 21 -22 29 -18 13 -19 16 -6 16 9 0 30 -11 46 -25 17 -14 37
-25 45 -25 26 0 27 28 2 52 -28 26 -32 53 -9 62 23 9 46 7 40 -3 -7 -11 27
-51 44 -51 10 0 10 3 0 15 -14 17 -7 19 38 6 20 -6 30 -6 27 0 -4 5 -1 9 4 9
15 0 14 -30 -1 -31 -7 -1 -23 -3 -36 -4 -26 -3 -55 -25 -33 -25 7 0 11 -9 9
-22 -2 -14 -10 -23 -20 -22 -18 2 -32 -32 -17 -42 5 -3 9 0 9 6 0 6 5 8 10 5
6 -3 10 -2 10 3 0 5 9 12 21 15 12 3 19 10 16 14 -3 5 -2 15 4 23 6 11 9 12 9
2 0 -7 4 -11 8 -8 5 3 15 -4 22 -15 8 -10 18 -19 22 -19 14 0 8 24 -12 50 -13
17 -16 28 -8 37 8 10 13 9 24 -2 8 -7 14 -20 14 -28 0 -13 20 -27 37 -27 3 0
3 10 0 23 -5 16 0 25 17 33 31 15 62 -3 60 -34 -1 -15 4 -22 15 -21 29 3 32
-1 16 -25 -21 -32 -7 -39 44 -21 26 9 41 10 41 4 0 -6 -9 -13 -20 -16 -11 -3
-20 -8 -20 -12 0 -4 -10 -8 -22 -8 -13 -1 -24 -6 -25 -10 -2 -4 -30 -8 -63 -8
-49 1 -64 5 -86 25 -21 19 -26 21 -21 7 6 -15 3 -16 -13 -7 -23 12 -30 13 -30
2 0 -5 27 -17 60 -27 33 -10 67 -26 76 -36 9 -10 20 -17 24 -14 4 2 17 -6 30
-20 19 -20 26 -22 46 -13 13 6 24 15 24 20 0 5 8 4 18 -1 10 -6 28 -7 40 -4
l22 5 -20 28 c-12 17 -16 31 -11 35 6 3 17 -8 26 -24 18 -35 28 -43 48 -35 9
3 13 14 10 27 -4 19 -3 20 9 7 9 -10 34 -16 76 -17 60 -1 63 -1 56 20 -3 12
-13 29 -21 37 -14 13 -15 12 -9 -14 7 -27 6 -28 -9 -16 -14 12 -18 12 -26 -1
-7 -11 -9 -11 -9 4 0 9 -4 17 -10 17 -5 0 -10 7 -10 15 0 8 5 15 10 15 6 0 10
4 10 9 0 6 -12 6 -31 1 -25 -7 -30 -6 -25 5 3 9 0 12 -10 8 -15 -6 -20 12 -5
22 6 3 20 27 33 53 29 60 57 102 69 102 14 0 11 -48 -7 -81 -19 -38 -16 -42
19 -24 25 13 27 12 33 -9 3 -12 14 -27 25 -34 16 -11 20 -10 26 5 3 10 8 21
10 25 2 4 -4 5 -14 1 -17 -6 -17 -5 0 15 15 16 17 24 7 39 -10 16 -11 16 -7
-4 5 -22 -5 -36 -30 -39 -16 -3 -16 2 -2 28 8 15 8 19 0 13 -8 -4 -10 1 -6 19
3 14 7 37 10 51 7 31 45 36 45 6 0 -29 11 -52 21 -45 11 7 86 -67 100 -99 l10
-22 -5 22 c-2 13 0 25 5 28 4 3 5 13 2 22 -5 14 0 15 38 9 24 -4 46 -11 47
-17 2 -5 8 -7 13 -3 5 3 12 -2 15 -10 11 -28 25 -6 18 28 -4 25 -2 35 11 39 9
4 14 3 10 -3 -3 -6 -1 -10 5 -10 8 0 10 9 6 25 -4 14 -2 25 4 25 5 0 10 -5 10
-11 0 -8 5 -8 15 1 8 7 21 10 29 7 8 -3 20 1 26 9 7 8 16 14 20 14 12 0 35
-52 32 -74 -3 -21 -2 -21 9 -1 7 11 19 24 27 29 11 6 12 10 2 16 -8 5 -10 17
-6 34 4 15 11 24 16 21 5 -3 7 -12 3 -20 -3 -8 -1 -15 5 -15 6 0 13 14 17 30
4 16 11 30 17 30 6 0 8 -7 4 -15 -9 -23 12 -18 25 7 l12 22 9 -24 c6 -16 5
-26 -1 -28 -14 -5 -14 -29 -1 -37 6 -3 15 6 20 22 6 15 23 38 38 51 26 23 26
23 3 17 -15 -5 -21 -3 -17 3 12 20 -22 35 -54 24 -16 -6 -30 -8 -30 -5 0 3 -7
0 -15 -7 -8 -6 -19 -9 -25 -5 -15 9 -12 35 5 42 9 3 23 19 31 35 11 22 18 27
28 19 7 -6 16 -9 20 -6 3 3 2 -1 -4 -7 -5 -7 -10 -18 -10 -25 0 -17 41 -13 64
6 8 7 21 11 28 8 8 -4 5 -8 -9 -12 -13 -4 -23 -14 -23 -22 0 -13 4 -13 26 2
25 16 28 16 36 1 5 -9 16 -16 23 -16 8 0 15 -5 15 -11 0 -6 8 -8 19 -4 14 4
23 0 30 -13 6 -11 22 -23 36 -26 16 -4 25 -13 25 -26 0 -11 5 -20 12 -20 8 0
9 -3 2 -10 -6 -6 -27 -7 -57 -1 -35 6 -51 5 -64 -5 -17 -12 -16 -13 6 -14 20
0 22 -2 11 -15 -11 -13 -10 -14 4 -9 9 3 16 11 16 16 0 15 91 3 101 -13 6 -10
9 -5 9 15 0 21 4 27 15 22 8 -3 15 -1 15 4 0 6 5 10 10 10 6 0 10 -8 10 -18 0
-11 14 -25 36 -35 19 -10 33 -13 30 -8 -3 4 6 9 20 9 14 -1 36 10 47 22 12 13
16 20 10 16 -7 -4 -21 -2 -30 3 -15 8 -15 11 -3 12 8 1 18 1 23 0 4 0 7 6 7
15 0 8 7 23 16 31 13 13 13 17 2 24 -10 7 -9 9 5 9 20 0 20 -1 8 -33 -8 -22
-7 -26 12 -31 25 -6 61 0 94 16 l22 11 -20 18 c-11 10 -21 19 -22 21 -4 8 37
64 61 83 72 58 71 57 24 39 -31 -12 -49 -14 -65 -7 -22 10 -22 10 11 41 l34
32 -34 -6 c-18 -3 -42 -5 -52 -5 -11 0 -24 -7 -31 -15 -6 -9 -18 -12 -27 -9
-21 8 -32 35 -14 35 8 0 16 7 20 15 3 8 1 15 -5 15 -6 0 -9 7 -6 15 4 8 2 17
-3 20 -4 3 -10 -1 -13 -7 -3 -9 -13 -5 -31 12 -15 13 -24 30 -21 38 3 8 1 20
-4 26 -5 6 -12 29 -15 51 -3 22 -3 34 0 28 3 -7 12 -13 20 -13 8 0 28 -7 44
-15 17 -9 30 -11 30 -6 0 5 -9 11 -20 14 -21 5 -36 47 -26 73 8 20 26 9 26
-17 0 -10 6 -19 14 -19 10 0 11 11 5 50 -4 28 -11 60 -14 70 -4 12 -2 20 5 20
7 0 10 7 6 18 -4 10 2 7 14 -8 11 -14 20 -30 20 -37 0 -7 9 -17 19 -23 17 -9
20 -7 19 18 -1 15 3 38 7 51 7 23 8 24 21 6 13 -17 14 -16 24 9 5 15 10 35 10
44 0 17 13 42 22 45 3 1 12 -4 21 -12 15 -12 17 -11 17 5 0 27 31 45 50 30 18
-13 22 -29 24 -78 1 -20 5 -40 10 -45 5 -5 6 0 2 11 -4 13 -2 17 8 13 10 -4
17 3 21 21 8 37 31 66 45 57 6 -4 9 -14 6 -22 -3 -8 -1 -11 4 -8 14 8 13 -28
-1 -42 -8 -8 -8 -13 0 -17 6 -4 11 -1 11 6 0 8 9 20 20 28 23 17 27 35 5 26
-17 -6 -38 26 -26 40 4 5 12 21 18 35 10 24 10 26 -8 22 -11 -3 -19 0 -19 7 0
6 9 14 20 17 11 3 20 9 20 14 0 5 5 9 10 9 6 0 10 -7 10 -15 0 -17 18 -19 40
-5 11 7 12 10 2 10 -10 0 -10 3 2 15 18 18 52 20 59 3 3 -7 6 -3 6 8 1 12 -6
24 -14 28 -8 3 -15 13 -15 22 0 11 -5 14 -17 9 -10 -4 -29 -9 -43 -11 -23 -4
-22 -3 5 11 29 13 29 14 6 15 -29 0 -24 8 9 13 39 6 36 27 -4 27 -63 0 -39 28
38 45 22 5 26 9 16 15 -11 7 -11 11 -1 24 8 9 20 16 29 16 8 0 28 14 44 30
l28 30 -27 1 c-16 1 -39 1 -53 0 -23 -1 -23 0 8 17 18 10 30 21 26 25 -4 4 -3
7 2 7 5 0 18 14 27 30 10 17 25 30 33 30 8 0 12 5 9 10 -3 6 -1 10 4 10 20 0
11 20 -11 30 l-23 9 23 7 c20 6 23 11 18 37 -3 17 -8 32 -10 34 -6 7 -36 -9
-31 -17 8 -14 -6 -40 -22 -40 -13 0 -13 -3 -3 -15 10 -12 10 -15 -4 -15 -9 0
-16 -4 -16 -10 0 -5 -16 -10 -35 -10 -19 0 -34 -3 -34 -7 1 -5 0 -12 -1 -18
-1 -5 -3 -21 -3 -35 -2 -19 -7 -24 -22 -22 -15 3 -17 1 -9 -8 8 -8 19 -8 38 0
17 6 25 6 21 0 -3 -6 -12 -10 -20 -10 -19 0 -30 -21 -15 -30 8 -5 -4 -14 -34
-25 -25 -10 -46 -22 -46 -28 0 -5 -7 -4 -15 3 -21 18 -19 29 5 23 16 -4 19 -2
14 11 -4 10 0 18 10 22 21 8 20 20 0 28 -10 4 -26 -1 -38 -11 -21 -18 -21 -18
-3 4 11 12 16 27 11 34 -5 9 2 11 27 6 29 -6 32 -5 17 7 -22 16 -5 36 31 36
23 0 24 1 6 20 -10 11 -14 20 -10 20 5 0 4 5 -3 12 -9 9 -15 9 -24 0 -10 -10
-10 -15 2 -22 13 -8 13 -10 -2 -10 -9 0 -19 4 -22 9 -8 13 -47 1 -70 -21 -11
-10 -27 -18 -35 -19 -9 0 -36 -2 -61 -3 -25 -2 -51 2 -57 7 -20 15 -15 -1 7
-25 10 -12 17 -25 14 -29 -6 -11 5 -16 56 -24 l45 -7 -24 23 c-28 27 -17 34
36 24 36 -6 37 -11 18 -57 -4 -11 2 -25 18 -42 14 -14 28 -36 32 -48 5 -17 4
-19 -4 -8 -12 17 -14 15 -26 -24 -7 -21 -20 -33 -44 -41 -22 -7 -31 -14 -23
-19 7 -4 10 -12 7 -17 -4 -5 0 -9 7 -10 12 -1 0 -7 -49 -24 -13 -4 -23 -11
-23 -16 0 -5 -7 -9 -16 -9 -10 0 -14 -6 -10 -15 7 -19 -4 -19 -32 1 -26 18
-29 10 -6 -13 15 -15 14 -17 -6 -28 -20 -11 -21 -13 -6 -28 9 -8 16 -22 16
-29 -1 -10 -4 -9 -13 2 -7 8 -21 20 -31 25 -10 6 -18 14 -17 19 1 4 -11 19
-27 34 -16 15 -32 36 -36 46 -8 23 13 39 31 24 15 -12 46 8 40 26 -2 6 0 21 4
34 5 13 5 22 -1 22 -6 0 -9 3 -9 8 4 21 -3 31 -16 26 -8 -4 -15 -10 -15 -15 0
-5 -9 -18 -19 -28 -14 -14 -22 -16 -31 -8 -10 9 -11 9 -6 0 7 -12 -11 -52 -28
-64 -17 -13 5 -44 44 -62 33 -16 39 -22 34 -41 -7 -27 41 -90 62 -82 18 7 18
-8 0 -23 -9 -7 -17 -8 -20 -2 -10 15 -47 0 -44 -17 2 -9 -1 -17 -7 -18 -28 -2
-65 -17 -65 -25 0 -14 -49 -31 -99 -34 -24 -2 -47 -9 -51 -15 -4 -6 -11 -10
-16 -9 -22 4 -34 -2 -34 -17 0 -26 -31 -49 -68 -50 -21 -1 -29 2 -20 7 9 6 6
8 -8 7 -15 -2 -20 -7 -16 -20 3 -14 -2 -18 -26 -18 -40 0 -48 -14 -20 -35 l23
-16 -26 6 c-21 5 -27 2 -32 -14 -6 -25 -20 -27 -40 -6 -8 8 -17 11 -21 8 -3
-4 -6 -2 -6 4 0 6 7 16 15 23 8 7 12 17 9 22 -4 6 2 8 15 3 28 -8 46 11 47 53
1 21 -3 32 -12 32 -8 0 -14 7 -14 15 0 13 4 14 20 5 11 -6 20 -7 20 -2 0 5
-11 15 -25 22 -30 16 -32 29 -5 27 13 -1 19 -6 15 -15 -3 -9 1 -12 15 -7 15 5
18 3 14 -9 -5 -12 1 -16 24 -16 29 0 58 20 30 20 -14 1 -58 34 -58 44 0 3 9 6
20 6 13 0 18 5 14 15 -5 11 0 14 17 13 13 -2 26 -6 29 -10 3 -3 23 -9 45 -12
22 -3 33 -3 25 0 -36 16 -42 57 -7 49 31 -8 59 -13 76 -14 7 -1 11 -7 8 -15
-4 -10 -1 -13 7 -10 21 8 7 44 -16 41 -27 -3 -47 28 -30 45 11 11 16 9 29 -7
15 -19 15 -18 9 13 -5 30 6 44 19 22 13 -20 21 -9 18 23 -3 26 -2 29 7 15 6
-10 16 -18 21 -18 6 0 7 5 3 12 -4 7 -6 34 -5 60 2 44 0 48 -19 48 -19 0 -20
-2 -10 -15 17 -20 -6 -48 -33 -41 -10 2 -30 0 -43 -6 -16 -7 -31 -8 -45 -2
-20 9 -20 11 -5 26 21 21 20 29 -1 21 -14 -4 -14 -2 2 9 11 9 35 19 53 23 28
6 32 4 32 -13 0 -11 6 -23 13 -25 6 -3 1 -6 -13 -7 l-25 -1 23 -11 c37 -18 47
3 21 48 -19 36 -20 37 -2 22 11 -10 27 -18 36 -18 18 0 23 25 7 35 -5 3 -10
-1 -10 -9 0 -13 -4 -12 -20 4 -11 11 -20 24 -20 29 0 5 -10 13 -22 17 -13 4
-27 12 -31 18 -6 8 -10 8 -13 -1 -3 -7 -11 -10 -19 -7 -7 3 -18 -4 -24 -15
-16 -30 -14 -34 18 -28 20 4 33 1 42 -9 11 -14 10 -15 -6 -13 -11 2 -26 0 -32
-4 -7 -5 -25 -2 -40 5 -25 12 -28 19 -25 53 2 21 8 47 13 56 7 13 5 21 -8 28
-14 8 -15 11 -3 11 12 1 12 3 -2 14 -10 7 -14 17 -10 21 4 4 -6 5 -23 1 l-30
-8 25 23 25 22 -27 -5 c-32 -6 -42 5 -47 45 -2 24 3 30 29 40 25 10 31 17 27
35 -4 19 -1 22 17 17 18 -5 17 -3 -4 9 -14 9 -21 15 -16 16 5 0 3 7 -4 15 -10
12 -9 15 6 16 11 1 22 1 27 0 4 0 7 3 7 9 0 5 -7 10 -16 10 -8 0 -13 4 -10 9
4 5 0 12 -6 14 -18 7 12 29 30 22 27 -10 1 13 -33 29 -20 10 -33 21 -30 27 4
5 3 9 -2 9 -4 0 -17 12 -27 27 -11 14 -14 23 -8 19 7 -4 12 -3 12 3 0 5 8 12
18 14 12 3 13 5 2 6 -8 1 -23 12 -32 25 l-17 24 34 -8 c19 -4 35 -5 35 -1 0 8
-87 61 -100 61 -6 0 -10 7 -10 15 0 8 -6 15 -12 15 -10 0 -10 2 0 8 9 6 6 14
-13 32 -16 15 -23 30 -19 42 3 10 2 18 -3 17 -4 -1 -10 0 -13 1 -16 6 -41 7
-38 2z m1098 -712 c-19 -13 -30 -13 -30 0 0 6 10 10 23 10 18 0 19 -2 7 -10z
m-70 -20 c-27 -7 -43 -3 -35 9 2 5 17 6 32 3 l28 -6 -25 -6z m-791 -42 c-12
-22 -23 -24 -15 -3 4 10 -1 15 -16 15 -21 0 -21 0 -2 18 17 17 20 17 31 3 7
-10 8 -22 2 -33z m-2129 -18 c13 -8 13 -10 -2 -10 -9 0 -20 5 -23 10 -8 13 5
13 25 0z m2085 -20 c3 -5 1 -10 -4 -10 -6 0 -11 5 -11 10 0 6 2 10 4 10 3 0 8
-4 11 -10z m35 -10 c0 -13 -6 -20 -17 -19 -11 0 -13 3 -5 6 6 2 12 11 12 19 0
8 2 14 5 14 3 0 5 -9 5 -20z m-2094 -88 c-16 -16 -18 -16 -30 1 -17 22 -26 22
-26 0 0 -13 -3 -14 -11 -6 -16 16 16 67 36 59 8 -3 18 0 22 6 4 8 10 1 16 -16
7 -22 6 -32 -7 -44z m2804 -32 c0 -5 -4 -10 -10 -10 -5 0 -10 5 -10 10 0 6 5
10 10 10 6 0 10 -4 10 -10z m-80 -10 c0 -5 -9 -10 -21 -10 -11 0 -17 -4 -14
-10 4 -6 -1 -7 -11 -3 -11 4 -13 8 -6 11 7 2 10 8 6 13 -3 5 6 9 20 9 14 0 26
-4 26 -10z m-670 -15 c-14 -16 -50 -21 -50 -6 0 5 12 12 28 14 15 2 29 5 31 6
2 0 -2 -6 -9 -14z m600 -25 c0 -15 -5 -12 -26 11 -19 22 -19 22 4 10 12 -6 22
-16 22 -21z m-457 3 c-7 -2 -19 -2 -25 0 -7 3 -2 5 12 5 14 0 19 -2 13 -5z
m432 -14 c11 -17 -1 -21 -15 -4 -8 9 -8 15 -2 15 6 0 14 -5 17 -11z m-619 -24
c-11 -8 -22 -12 -25 -9 -6 6 19 24 34 24 6 -1 1 -7 -9 -15z m587 -5 c3 -11 1
-18 -4 -14 -5 3 -9 12 -9 20 0 20 7 17 13 -6z m-589 -94 c-21 -15 -30 -14 -19
3 3 6 14 11 23 11 13 0 13 -2 -4 -14z m15 -27 c-16 -10 -23 -4 -14 10 3 6 11
8 17 5 6 -4 5 -9 -3 -15z m-49 -9 c0 -5 -7 -10 -15 -10 -8 0 -15 5 -15 10 0 6
7 10 15 10 8 0 15 -4 15 -10z m-43 -31 c-2 -24 -32 -43 -54 -35 -12 5 -13 9
-3 21 10 12 10 15 -1 16 -11 1 24 13 53 18 4 0 6 -8 5 -20z m-1710 -35 c-3 -3
-12 -4 -19 -1 -8 3 -5 6 6 6 11 1 17 -2 13 -5z m2089 -16 c-1 -16 -8 -24 -25
-26 l-25 -4 25 26 c13 14 25 26 25 26 1 0 1 -10 0 -22z m-46 -46 c0 -4 -9 -13
-20 -20 -22 -13 -23 -12 -14 12 6 16 34 23 34 8z m-32 -64 c19 -19 14 -31 -13
-26 -25 5 -36 -14 -15 -27 15 -9 -1 -35 -22 -35 -17 0 -18 2 -8 15 11 13 9 19
-10 35 -19 16 -20 20 -7 20 10 0 17 7 17 15 0 18 41 20 58 3z m-1653 -8 c-3
-5 -11 -10 -16 -10 -6 0 -7 5 -4 10 3 6 11 10 16 10 6 0 7 -4 4 -10z m-205
-51 c0 -8 4 -8 14 0 17 14 31 -2 22 -25 -3 -9 -1 -12 4 -9 15 9 12 -8 -5 -31
-17 -23 -20 -43 -3 -26 16 16 31 15 25 -2 -4 -10 0 -12 15 -8 18 4 20 2 13
-26 -5 -27 -1 -37 37 -79 30 -33 34 -41 14 -25 -30 23 -46 28 -46 14 0 -5 12
-14 26 -21 15 -6 24 -14 21 -17 -3 -3 -20 2 -37 12 -25 16 -32 16 -39 5 -7
-10 -11 -8 -16 10 -4 13 -14 31 -22 40 -8 9 -14 27 -15 40 0 13 -4 38 -8 54
-15 54 -19 105 -9 105 5 0 9 -5 9 -11z m1755 -12 c0 -8 4 -19 9 -24 5 -5 6 -2
1 6 -6 10 -4 12 4 7 6 -4 9 -16 6 -26 -5 -15 -2 -17 15 -13 13 3 38 -3 61 -16
35 -20 39 -20 39 -5 0 13 3 14 15 4 8 -7 15 -16 15 -21 0 -5 -7 -9 -15 -9 -8
0 -15 -6 -15 -12 0 -10 -3 -9 -9 1 -12 19 -24 -3 -16 -29 5 -16 2 -20 -19 -20
-29 0 -36 20 -8 21 11 0 8 4 -10 13 l-28 12 22 22 c19 19 20 22 5 22 -9 0 -17
-4 -17 -10 0 -6 -9 -6 -25 0 -29 11 -32 4 -8 -22 9 -10 12 -18 7 -18 -15 0
-30 14 -39 35 -7 18 -9 17 -14 -10 -5 -20 -12 -30 -24 -29 -12 1 -17 -6 -17
-22 0 -12 -5 -26 -11 -29 -6 -5 -9 9 -8 39 2 25 7 46 12 46 5 0 4 7 -3 15 -9
10 -9 15 -1 15 6 0 11 6 11 14 0 15 27 29 40 21 5 -3 7 6 5 20 -1 16 2 24 9
22 6 -2 11 -11 11 -20z m-731 -2 c3 -9 0 -15 -9 -15 -8 0 -15 7 -15 15 0 8 4
15 9 15 5 0 11 -7 15 -15z m-218 -23 c1 -7 0 -8 -3 -2 -11 23 -24 8 -18 -22 7
-31 34 -63 70 -84 31 -18 31 -36 0 -24 -15 6 -31 7 -37 4 -7 -5 -8 -2 -3 6 5
9 2 10 -12 6 -14 -5 -30 6 -61 39 -38 41 -41 48 -27 61 8 9 21 14 28 12 6 -3
18 2 26 9 15 16 34 13 37 -5z m154 9 c0 -6 -4 -13 -10 -16 -5 -3 -10 1 -10 9
0 9 5 16 10 16 6 0 10 -4 10 -9z m-270 -96 c10 -12 10 -19 2 -27 -9 -9 -12 -9
-12 2 0 7 -10 25 -22 38 -22 23 -22 24 -2 14 11 -6 27 -18 34 -27z m460 21 c0
-16 -28 -42 -36 -33 -8 7 14 47 26 47 6 0 10 -6 10 -14z m336 -32 c3 -13 12
-25 20 -28 22 -9 16 -25 -7 -19 -12 3 -24 1 -28 -5 -4 -7 -29 -15 -57 -18 -36
-4 -45 -3 -34 5 8 6 25 11 38 11 12 0 22 5 22 10 0 6 -3 10 -7 10 -5 0 -13 11
-19 25 -10 21 -9 24 10 27 45 7 57 3 62 -18z m318 -49 c3 -8 2 -15 -3 -15 -5
0 -14 7 -21 15 -10 12 -10 15 3 15 8 0 17 -7 21 -15z m-1831 -15 c-3 -12 -8
-19 -11 -16 -5 6 5 36 12 36 2 0 2 -9 -1 -20z m47 -10 c0 -5 -4 -10 -10 -10
-5 0 -10 5 -10 10 0 6 5 10 10 10 6 0 10 -4 10 -10z m-323 -22 c-3 -8 -6 -5
-6 6 -1 11 2 17 5 13 3 -3 4 -12 1 -19z m1348 12 c3 -5 -1 -10 -10 -10 -9 0
-13 5 -10 10 3 6 8 10 10 10 2 0 7 -4 10 -10z m112 -10 c-14 -11 -36 -20 -49
-20 -22 0 -22 1 7 20 17 11 38 20 49 20 16 0 15 -3 -7 -20z m-1267 -18 c0 -15
-2 -15 -10 -2 -13 20 -13 33 0 25 6 -3 10 -14 10 -23z m499 -45 c-1 -17 -2
-18 -6 -4 -3 10 -10 14 -16 11 -7 -4 -9 -4 -5 1 4 4 1 17 -7 29 -24 34 -16 43
10 13 14 -15 24 -38 24 -50z m-832 57 c-3 -3 -12 -4 -19 -1 -8 3 -5 6 6 6 11
1 17 -2 13 -5z m2133 -17 c0 -16 -6 -23 -19 -23 -20 0 -18 24 3 38 16 11 16
10 16 -15z m40 13 c0 -5 -5 -10 -11 -10 -5 0 -7 5 -4 10 3 6 8 10 11 10 2 0 4
-4 4 -10z m-1720 -28 c11 -22 10 -23 -12 -17 -12 4 -27 12 -33 17 -7 7 -3 8
12 3 19 -5 22 -3 16 12 -8 23 1 15 17 -15z m781 9 c-8 -5 -11 -17 -7 -29 4
-11 2 -23 -4 -27 -14 -9 -13 48 2 63 6 6 14 9 17 6 3 -3 -1 -9 -8 -13z m-1584
-13 c-3 -8 -6 -5 -6 6 -1 11 2 17 5 13 3 -3 4 -12 1 -19z m343 8 c-1 -5 4 -12
12 -17 10 -6 10 -11 1 -20 -15 -15 -19 -12 -29 25 -5 20 -3 27 5 25 7 -3 12
-8 11 -13z m166 0 c10 -11 11 -15 1 -19 -19 -7 -36 3 -30 19 7 18 11 18 29 0z
m1217 7 c-7 -2 -19 -2 -25 0 -7 3 -2 5 12 5 14 0 19 -2 13 -5z m512 -3 c-27
-12 -43 -12 -25 0 8 5 22 9 30 9 10 0 8 -3 -5 -9z m-215 -10 c0 -5 -5 -20 -12
-34 -8 -19 -14 -23 -24 -15 -22 18 -27 -11 -5 -30 15 -13 17 -21 9 -29 -19
-19 -28 -14 -28 13 0 14 -5 25 -11 25 -7 0 -9 -11 -6 -29 5 -24 2 -31 -14 -36
-27 -9 -34 -1 -14 18 8 9 15 25 15 36 0 12 4 21 9 21 5 0 15 16 22 35 10 26
19 35 36 35 13 0 23 -4 23 -10z m-398 -22 c-7 -7 -12 -8 -12 -2 0 14 12 26 19
19 2 -3 -1 -11 -7 -17z m908 13 c0 -5 -7 -11 -15 -15 -15 -5 -20 5 -8 17 9 10
23 9 23 -2z m-2104 -40 c-1 -17 -5 -26 -9 -21 -5 4 -6 17 -2 29 9 29 12 26 11
-8z m1786 23 c15 -9 -12 -24 -44 -24 -25 0 -35 9 -24 21 8 7 57 9 68 3z m-301
-24 c-8 -4 -11 -15 -8 -23 4 -10 -2 -16 -18 -19 -17 -4 -25 0 -28 14 -4 14 3
22 26 32 33 14 52 11 28 -4z m171 2 c4 -12 -1 -18 -13 -18 -19 0 -25 16 -12
29 11 12 20 8 25 -11z m-1479 -18 c4 -23 3 -24 -10 -11 -9 8 -12 20 -9 26 10
16 13 14 19 -15z m2008 13 c-6 -8 -8 -17 -4 -20 3 -4 1 -7 -5 -7 -7 0 -12 9
-12 20 0 12 7 20 16 20 13 0 14 -3 5 -13z m-1931 -7 c0 -5 -4 -10 -10 -10 -5
0 -10 -5 -10 -11 0 -5 5 -7 10 -4 6 3 10 -3 10 -14 0 -19 -2 -20 -20 -9 -23
15 -25 29 -8 46 15 15 28 16 28 2z m606 -17 c-10 -10 -19 5 -10 18 6 11 8 11
12 0 2 -7 1 -15 -2 -18z m-1166 2 c0 -8 -7 -15 -15 -15 -13 0 -14 3 -3 15 16
18 18 18 18 0z m1669 -22 c-11 -20 -21 -49 -21 -65 -1 -27 -1 -28 -16 -7 -12
17 -12 23 0 37 8 9 20 29 28 45 7 15 17 27 22 27 4 0 -2 -16 -13 -37z m776 24
c-3 -7 11 -19 35 -30 43 -18 53 -29 20 -20 -16 4 -19 2 -14 -12 4 -10 14 -15
25 -12 11 3 19 0 19 -5 0 -6 -12 -8 -30 -4 -21 4 -29 2 -24 -5 4 -7 -1 -7 -15
1 -13 6 -21 19 -19 28 2 9 -4 26 -14 36 -19 20 -16 36 7 36 8 0 12 -6 10 -13z
m292 -2 c0 -8 -4 -12 -9 -9 -5 3 -6 10 -3 15 9 13 12 11 12 -6z m-1237 -15 c0
-4 -6 -13 -14 -19 -11 -10 -14 -7 -12 12 0 15 6 23 14 20 6 -3 12 -9 12 -13z
m-1035 0 c3 -5 1 -10 -4 -10 -6 0 -11 5 -11 10 0 6 2 10 4 10 3 0 8 -4 11 -10z
m1583 -15 c17 -36 16 -38 -18 -31 -16 3 -43 9 -60 12 -36 7 -39 21 -7 34 43
17 73 12 85 -15z m-2218 5 c0 -5 -2 -10 -4 -10 -3 0 -8 5 -11 10 -3 6 -1 10 4
10 6 0 11 -4 11 -10z m695 -30 c7 -11 -29 -32 -39 -23 -3 3 -6 17 -6 30 0 20
3 22 19 13 11 -5 23 -14 26 -20z m1194 11 c-18 -27 -49 -45 -49 -27 0 30 13
46 36 46 21 0 23 -2 13 -19z m-1799 0 c0 -12 -20 -25 -27 -18 -7 7 6 27 18 27
5 0 9 -4 9 -9z m497 -13 c-3 -8 -6 -5 -6 6 -1 11 2 17 5 13 3 -3 4 -12 1 -19z
m724 -2 c5 3 9 -3 9 -13 0 -11 5 -24 12 -31 9 -9 9 -15 -1 -24 -11 -11 -13
-10 -7 0 4 7 -2 24 -13 38 -12 15 -21 32 -20 38 0 7 3 6 6 -2 2 -6 9 -10 14
-6z m59 -6 c0 -13 -7 -20 -20 -20 -23 0 -25 5 -7 25 17 20 27 18 27 -5z m-377
-10 c3 -11 1 -18 -4 -14 -5 3 -9 12 -9 20 0 20 7 17 13 -6z m587 11 c0 -5 -6
-12 -12 -14 -8 -3 -6 -6 5 -6 21 -1 23 -21 2 -21 -9 0 -15 -9 -15 -22 0 -21
-35 -68 -51 -68 -4 0 -7 9 -6 20 1 11 5 20 10 20 4 0 6 4 2 9 -3 6 2 14 11 19
11 6 15 17 11 31 -3 13 1 24 11 31 22 12 32 12 32 1z m190 -1 c0 -5 -2 -10 -4
-10 -3 0 -8 5 -11 10 -3 6 -1 10 4 10 6 0 11 -4 11 -10z m1190 6 c0 -2 -7 -7
-16 -10 -8 -3 -12 -2 -9 4 6 10 25 14 25 6z m-1465 -15 c3 -5 1 -12 -4 -15 -5
-3 -11 1 -15 9 -6 16 9 21 19 6z m520 0 c-3 -5 1 -16 9 -24 18 -17 9 -33 -26
-46 -21 -8 -28 -7 -32 6 -4 9 0 23 9 33 8 9 15 22 15 28 0 7 7 12 16 12 8 0
13 -4 9 -9z m-622 -26 c-3 -8 -12 -15 -19 -15 -12 0 -12 4 -4 20 12 23 32 18
23 -5z m553 6 c-9 -10 -16 -27 -16 -38 0 -28 -10 -53 -20 -53 -13 0 -24 91
-12 99 5 3 22 7 37 7 24 2 25 1 11 -15z m-935 -14 c-10 -9 -11 -8 -5 6 3 10 9
15 12 12 3 -3 0 -11 -7 -18z m159 13 c0 -5 -8 -10 -17 -10 -15 0 -16 2 -3 10
19 12 20 12 20 0z m255 -30 c-27 -30 -36 -24 -18 11 11 22 18 28 26 20 7 -7 5
-16 -8 -31z m1342 23 c-9 -9 -20 -13 -24 -9 -4 4 -1 11 7 16 25 16 35 11 17
-7z m-2417 -9 c0 -8 -5 -12 -10 -9 -6 4 -8 11 -5 16 9 14 15 11 15 -7z m38
-17 c2 -16 -2 -27 -9 -27 -6 0 -17 -6 -23 -14 -8 -10 -17 -12 -35 -5 -20 8
-21 12 -11 25 7 8 20 12 28 9 8 -3 21 0 28 6 16 13 19 33 4 24 -5 -3 -10 -1
-10 5 0 23 25 3 28 -23z m832 -22 c0 -6 -9 -11 -20 -11 -15 0 -19 7 -18 34 l1
34 18 -23 c10 -13 19 -29 19 -34z m-900 35 c0 -5 -9 -10 -20 -10 -11 0 -20 -5
-20 -12 0 -6 -2 -9 -5 -6 -3 3 -3 13 1 22 7 17 44 23 44 6z m2400 0 c0 -5 -5
-10 -11 -10 -5 0 -7 5 -4 10 3 6 8 10 11 10 2 0 4 -4 4 -10z m-1240 -10 c5 8
10 10 10 4 0 -5 -6 -19 -14 -30 -11 -15 -17 -16 -27 -7 -6 6 -9 20 -5 30 6 15
8 15 17 3 8 -13 10 -13 19 0z m-450 -8 c0 -4 -9 -8 -20 -9 -11 -1 -20 2 -20 8
0 5 9 9 20 9 11 0 20 -4 20 -8z m-120 -32 c0 -5 -5 -10 -11 -10 -5 0 -7 5 -4
10 3 6 8 10 11 10 2 0 4 -4 4 -10z m358 -26 c-10 -10 -24 -14 -34 -10 -15 6
-14 9 6 26 29 25 54 10 28 -16z"/>
<path d="M2102 3550 c0 -19 2 -27 5 -17 2 9 2 25 0 35 -3 9 -5 1 -5 -18z"/>
<path d="M2280 3570 c-13 -8 -13 -10 2 -10 9 0 20 5 23 10 8 13 -5 13 -25 0z"/>
<path d="M2840 3565 c0 -11 24 -55 30 -55 4 0 6 -14 4 -31 -3 -27 -2 -30 12
-18 8 7 13 21 11 30 -3 10 0 17 6 16 6 -1 13 7 15 17 3 14 0 17 -11 13 -10 -4
-18 1 -22 14 -5 16 -45 29 -45 14z"/>
<path d="M5738 3563 c7 -3 16 -2 19 1 4 3 -2 6 -13 5 -11 0 -14 -3 -6 -6z"/>
<path d="M2287 3543 c-9 -2 -15 -9 -12 -14 9 -14 32 -11 39 6 6 15 4 16 -27 8z"/>
<path d="M4999 3520 l-24 -19 30 0 c17 1 41 5 55 10 l25 9 -27 -4 c-19 -2 -25
1 -21 11 7 19 -11 16 -38 -7z"/>
<path d="M5210 3530 c-8 -5 -10 -10 -5 -10 6 0 17 5 25 10 8 5 11 10 5 10 -5
0 -17 -5 -25 -10z"/>
<path d="M5670 3532 c-8 -4 -27 -15 -42 -25 -24 -16 -25 -21 -16 -48 5 -16 14
-29 20 -29 6 0 8 7 5 15 -4 8 -2 17 3 20 4 3 10 0 12 -6 2 -7 13 -6 33 2 l30
13 -27 4 c-29 3 -40 32 -13 32 8 0 15 7 15 15 0 8 -1 15 -2 14 -2 0 -10 -3
-18 -7z"/>
<path d="M5580 3510 c-9 -6 -10 -10 -3 -10 6 0 15 5 18 10 8 12 4 12 -15 0z"/>
<path d="M5407 3503 c-3 -5 6 -9 20 -10 19 -1 22 1 12 8 -17 11 -26 11 -32 2z"/>
<path d="M4960 3490 c0 -5 5 -10 11 -10 5 0 7 5 4 10 -3 6 -8 10 -11 10 -2 0
-4 -4 -4 -10z"/>
<path d="M2431 3438 c0 -13 4 -32 8 -42 7 -18 8 -18 14 -3 6 17 -7 67 -18 67
-3 0 -5 -10 -4 -22z"/>
<path d="M2473 3425 c-2 -22 0 -26 7 -15 8 12 11 11 16 -7 9 -32 21 -29 22 5
0 19 -6 30 -21 37 -20 10 -22 8 -24 -20z"/>
<path d="M5650 3421 c-17 -15 -30 -31 -30 -33 0 -3 -23 -29 -50 -58 -28 -29
-48 -55 -46 -57 9 -9 46 9 46 22 0 14 48 30 59 19 3 -4 0 -9 -7 -11 -7 -3 -17
-14 -23 -25 -7 -14 -8 -18 0 -14 11 7 31 -24 31 -48 0 -10 -10 -16 -27 -17
-18 -1 -22 -3 -10 -6 19 -5 117 37 117 50 0 4 -17 5 -37 2 -31 -4 -34 -3 -15
4 30 14 28 18 -7 13 -35 -5 -49 13 -21 28 11 6 17 16 14 22 -4 6 2 18 12 26
17 13 16 14 -18 9 -56 -8 -46 5 22 31 33 13 60 28 60 33 0 4 7 5 17 2 11 -4
14 -3 9 5 -4 7 -21 12 -37 12 -18 0 -28 4 -24 10 12 19 -5 10 -35 -19z"/>
<path d="M5825 3440 c-4 -6 5 -10 20 -10 15 0 24 4 20 10 -3 6 -12 10 -20 10
-8 0 -17 -4 -20 -10z"/>
<path d="M2650 3411 c0 -10 19 -25 25 -20 1 2 -3 10 -11 17 -8 7 -14 8 -14 3z"/>
<path d="M5885 3400 c3 -5 11 -10 16 -10 6 0 7 5 4 10 -3 6 -11 10 -16 10 -6
0 -7 -4 -4 -10z"/>
<path d="M2840 3387 c0 -23 -16 -29 -39 -15 -16 10 -23 10 -33 0 -9 -9 -7 -12
9 -12 12 0 24 -4 27 -8 2 -4 -11 -7 -30 -7 -34 2 -35 1 -32 -33 2 -20 9 -38
17 -40 9 -3 11 0 6 8 -5 9 -4 11 4 6 6 -4 9 -11 6 -16 -3 -5 3 -13 13 -19 17
-9 21 -2 42 65 12 41 20 78 16 81 -3 4 -6 -1 -6 -10z m-60 -67 c0 -5 -5 -10
-11 -10 -5 0 -7 5 -4 10 3 6 8 10 11 10 2 0 4 -4 4 -10z m30 -21 c0 -6 -4 -7
-10 -4 -5 3 -10 11 -10 16 0 6 5 7 10 4 6 -3 10 -11 10 -16z"/>
<path d="M5517 3384 c-4 -4 -4 -10 -1 -15 6 -10 34 0 34 12 0 10 -24 12 -33 3z"/>
<path d="M2200 3350 c0 -5 5 -10 10 -10 6 0 10 5 10 10 0 6 -4 10 -10 10 -5 0
-10 -4 -10 -10z"/>
<path d="M2459 3347 c6 -8 8 -17 4 -20 -3 -4 -1 -7 5 -7 14 0 14 2 6 24 -3 9
-11 16 -16 16 -7 0 -6 -5 1 -13z"/>
<path d="M2227 3336 c-3 -8 -2 -18 4 -22 16 -9 22 2 11 21 -8 15 -10 16 -15 1z"/>
<path d="M2009 3313 c-18 -20 -19 -24 -4 -13 11 8 23 20 28 25 4 6 11 5 16 -5
6 -8 13 -11 18 -7 7 7 -13 26 -28 27 -3 0 -16 -12 -30 -27z"/>
<path d="M5176 3313 c-5 -11 0 -22 11 -31 10 -7 17 -17 16 -21 -1 -4 18 -28
43 -52 32 -31 44 -38 44 -26 0 16 2 16 22 -3 12 -11 25 -21 30 -21 4 -1 13 -2
19 -3 6 0 16 -9 23 -18 16 -22 26 -23 26 -2 0 12 7 14 28 10 15 -3 34 -1 42 5
13 9 12 10 -2 5 -10 -3 -30 1 -45 9 -25 14 -26 15 -6 15 25 0 39 16 21 24 -7
3 -4 4 7 1 30 -6 66 17 55 35 -8 13 -16 12 -55 -9 -57 -30 -67 -22 -23 18 l33
31 -34 -4 c-53 -6 -66 3 -40 25 24 21 19 25 -12 9 -10 -6 -19 -17 -19 -24 0
-7 -10 -17 -22 -23 -26 -11 -61 0 -90 30 -10 9 -25 17 -33 17 -8 0 -15 5 -15
10 0 16 -17 11 -24 -7z m114 -61 c0 -5 12 -13 28 -20 25 -11 24 -11 -13 -6
-40 6 -66 11 -75 14 -5 2 37 17 53 19 4 1 7 -3 7 -7z m210 -16 c0 -2 -7 -7
-16 -10 -8 -3 -12 -2 -9 4 6 10 25 14 25 6z"/>
<path d="M5773 3319 c-6 -6 -9 -18 -6 -25 6 -16 39 -19 48 -4 3 6 0 10 -7 10
-11 0 -10 2 0 9 11 7 10 10 -3 15 -21 8 -19 8 -32 -5z"/>
<path d="M2085 3279 c-4 -6 -5 -13 -2 -16 7 -7 27 6 27 18 0 12 -17 12 -25 -2z"/>
<path d="M1890 3259 c0 -5 5 -7 10 -4 6 3 10 8 10 11 0 2 -4 4 -10 4 -5 0 -10
-5 -10 -11z"/>
<path d="M2347 3263 c-4 -3 -7 -11 -7 -17 0 -6 5 -4 10 4 8 13 10 13 10 -1 0
-9 7 -19 15 -23 8 -3 15 -1 15 5 0 6 7 6 19 -1 11 -5 23 -10 28 -10 4 1 -3 7
-16 14 -14 8 -31 12 -38 9 -7 -3 -13 2 -13 11 0 16 -12 21 -23 9z"/>
<path d="M2670 3226 c0 -20 6 -36 14 -39 22 -9 28 5 10 24 -9 10 -14 25 -11
34 4 8 2 15 -3 15 -6 0 -10 -15 -10 -34z"/>
<path d="M5810 3249 c0 -5 5 -7 10 -4 6 3 10 8 10 11 0 2 -4 4 -10 4 -5 0 -10
-5 -10 -11z"/>
<path d="M2487 3229 c6 -6 9 -18 6 -25 -6 -16 6 -18 27 -4 13 9 12 12 -4 25
-23 18 -45 20 -29 4z"/>
<path d="M1610 3219 c0 -5 -6 -7 -12 -3 -7 4 -5 -1 4 -11 14 -15 20 -16 32 -5
22 17 20 30 -4 30 -11 0 -20 -5 -20 -11z"/>
<path d="M4965 3191 c3 -30 33 -66 45 -55 2 3 -1 8 -8 12 -6 5 -13 18 -15 30
-2 12 -8 27 -15 34 -9 9 -10 4 -7 -21z"/>
<path d="M1860 3198 c0 -9 5 -20 10 -23 13 -8 13 5 0 25 -8 13 -10 13 -10 -2z"/>
<path d="M2376 3201 c-4 -5 3 -7 14 -4 23 6 26 13 6 13 -8 0 -17 -4 -20 -9z"/>
<path d="M5469 3190 c-19 -13 -8 -18 21 -10 19 4 21 7 9 12 -9 3 -22 2 -30 -2z"/>
<path d="M1590 3158 c0 -19 2 -20 10 -8 13 19 13 30 0 30 -5 0 -10 -10 -10
-22z"/>
<path d="M2315 3150 c-3 -6 1 -7 9 -4 18 7 21 14 7 14 -6 0 -13 -4 -16 -10z"/>
<path d="M1621 3122 c-6 -11 -11 -31 -10 -44 0 -22 1 -22 8 -3 5 11 6 24 3 29
-3 5 2 7 11 3 19 -7 21 1 8 22 -7 11 -11 10 -20 -7z"/>
<path d="M2461 3124 c0 -11 3 -14 6 -6 3 7 2 16 -1 19 -3 4 -6 -2 -5 -13z"/>
<path d="M5614 3131 c4 -5 0 -12 -6 -14 -10 -4 -9 -8 2 -16 19 -14 60 -14 60
0 0 5 3 8 8 6 4 -3 16 -1 27 4 16 6 14 8 -13 8 -19 1 -31 5 -27 11 4 6 -7 10
-25 10 -17 0 -29 -4 -26 -9z"/>
<path d="M1560 3115 c-7 -9 -11 -18 -8 -20 3 -3 11 1 18 10 7 9 11 18 8 20 -3
3 -11 -1 -18 -10z"/>
<path d="M2560 3120 c0 -5 5 -10 10 -10 6 0 10 5 10 10 0 6 -4 10 -10 10 -5 0
-10 -4 -10 -10z"/>
<path d="M2781 3114 c0 -11 3 -14 6 -6 3 7 2 16 -1 19 -3 4 -6 -2 -5 -13z"/>
<path d="M1475 3110 c-3 -5 -1 -10 4 -10 6 0 11 5 11 10 0 6 -2 10 -4 10 -3 0
-8 -4 -11 -10z"/>
<path d="M1790 3110 c0 -5 -7 -10 -16 -10 -11 0 -14 -5 -10 -16 3 -9 6 -26 6
-40 0 -18 4 -22 18 -17 17 6 52 38 52 48 0 3 -6 4 -12 3 -8 -2 -12 6 -11 20 2
14 -3 22 -12 22 -8 0 -15 -4 -15 -10z"/>
<path d="M2765 3061 c-14 -27 -14 -34 -2 -52 13 -18 15 -16 20 28 3 26 4 50 2
51 -2 2 -11 -10 -20 -27z"/>
<path d="M5680 3080 c0 -5 5 -10 10 -10 6 0 10 5 10 10 0 6 -4 10 -10 10 -5 0
-10 -4 -10 -10z"/>
<path d="M2524 3069 c-3 -6 -2 -15 2 -19 12 -12 38 5 30 19 -9 14 -23 14 -32
0z"/>
<path d="M2476 3058 c6 -16 -4 -23 -27 -20 -4 1 -6 -10 -5 -23 1 -28 16 -34
16 -7 1 17 30 -40 34 -68 6 -32 28 -14 32 26 3 33 -1 46 -26 75 -16 19 -27 26
-24 17z"/>
<path d="M4974 3045 c-3 -14 -11 -26 -18 -27 -6 0 -15 -2 -21 -3 -5 -2 -14 -4
-20 -5 -5 -1 6 -7 25 -14 31 -11 50 -37 26 -35 -18 2 -28 -31 -14 -45 11 -11
17 -11 31 -1 9 7 17 17 17 23 0 6 7 9 16 5 9 -3 13 -12 10 -22 -4 -10 1 -7 13
7 25 28 33 28 25 -2 -3 -14 -1 -27 6 -31 14 -9 32 14 25 33 -2 7 1 23 7 37 9
20 8 28 -4 42 -9 10 -14 23 -12 28 5 12 -51 35 -84 35 -15 0 -24 -8 -28 -25z
m76 -20 c7 -8 8 -15 2 -15 -5 0 -15 7 -22 15 -7 8 -8 15 -2 15 5 0 15 -7 22
-15z"/>
<path d="M1920 3040 c0 -11 4 -20 8 -20 4 0 8 9 9 20 1 11 -2 20 -8 20 -5 0
-9 -9 -9 -20z"/>
<path d="M1565 3020 c-3 -6 1 -7 9 -4 18 7 21 14 7 14 -6 0 -13 -4 -16 -10z"/>
<path d="M5135 2993 c4 -21 8 -45 10 -53 1 -8 -6 -22 -15 -30 -12 -10 -15 -22
-10 -35 7 -19 8 -18 20 8 7 15 19 27 27 27 9 0 13 14 12 48 -1 26 -4 37 -6 24
-6 -31 -23 -17 -23 19 0 16 -5 29 -11 29 -8 0 -9 -12 -4 -37z"/>
<path d="M1965 3010 c-3 -5 -1 -10 4 -10 6 0 11 5 11 10 0 6 -2 10 -4 10 -3 0
-8 -4 -11 -10z"/>
<path d="M2636 2989 c-7 -18 -15 -27 -17 -21 -2 6 -9 0 -16 -14 -10 -22 -10
-25 4 -20 8 4 22 1 30 -6 26 -21 43 -18 43 7 0 14 7 25 18 28 16 4 16 5 -1 6
-11 1 -15 6 -11 13 5 8 0 9 -15 5 -18 -4 -21 -2 -16 14 10 31 -5 22 -19 -12z"/>
<path d="M1710 2991 c0 -12 5 -21 10 -21 6 0 10 6 10 14 0 8 -4 18 -10 21 -5
3 -10 -3 -10 -14z"/>
<path d="M1790 2988 c0 -7 5 -20 10 -28 8 -12 10 -11 10 7 0 12 -4 25 -10 28
-5 3 -10 0 -10 -7z"/>
<path d="M1935 2981 c-6 -11 9 -23 19 -14 9 9 7 23 -3 23 -6 0 -12 -4 -16 -9z"/>
<path d="M2230 2971 c0 -6 4 -13 10 -16 6 -3 7 1 4 9 -7 18 -14 21 -14 7z"/>
<path d="M1904 2963 c-8 -3 -9 -15 -4 -39 8 -36 19 -55 21 -38 9 72 6 86 -17
77z"/>
<path d="M2387 2950 c-3 -11 0 -26 6 -33 7 -6 12 -16 12 -22 1 -19 29 -85 37
-85 4 0 5 7 2 15 -7 17 9 19 37 5 15 -8 19 -7 19 3 0 27 -32 92 -56 114 l-24
22 -1 -22 0 -22 -9 23 c-11 27 -16 28 -23 2z"/>
<path d="M5900 2950 c-13 -8 -12 -10 3 -10 9 0 17 5 17 10 0 12 -1 12 -20 0z"/>
<path d="M2564 2917 c2 -17 0 -37 -6 -44 -5 -7 -6 -18 -2 -24 5 -9 10 -6 15 9
5 13 17 22 29 22 28 0 25 12 -10 43 l-30 27 4 -33z"/>
<path d="M5525 2930 c-3 -5 -2 -10 4 -10 5 0 13 5 16 10 3 6 2 10 -4 10 -5 0
-13 -4 -16 -10z"/>
<path d="M5930 2933 c-27 -9 -60 -26 -60 -32 0 -3 11 -7 24 -7 15 -1 23 3 20
10 -3 7 8 17 23 23 28 11 22 16 -7 6z"/>
<path d="M2251 2894 c-23 -29 -23 -45 -1 -52 9 -3 11 1 7 12 -4 10 -3 15 4 11
5 -4 7 -15 4 -26 -4 -11 -2 -19 4 -19 6 0 11 -4 11 -10 0 -17 -21 -11 -40 13
l-19 22 3 -38 c4 -46 45 -94 71 -83 13 5 16 14 12 36 -4 17 -2 32 5 36 6 4 8
3 5 -3 -4 -6 0 -14 8 -17 9 -3 15 -1 14 7 -3 23 1 38 9 33 4 -2 6 11 4 30 -3
25 -8 34 -18 30 -8 -3 -14 -1 -14 5 0 6 -4 8 -9 4 -5 -3 -16 4 -24 15 -15 21
-15 21 -36 -6z"/>
<path d="M5188 2887 c-7 -7 -29 -19 -48 -27 -19 -8 -43 -21 -52 -29 -16 -14
-16 -16 4 -33 12 -10 31 -18 44 -18 16 0 25 -9 33 -30 5 -16 12 -30 14 -30 9
0 2 35 -8 43 -6 4 -5 11 5 16 12 9 12 11 -3 17 -10 3 -29 4 -42 2 -21 -4 -25
-1 -25 18 0 17 6 24 18 23 10 0 12 -3 5 -6 -24 -9 -13 -20 14 -15 27 5 60 29
57 41 -1 3 2 5 6 4 4 -1 6 7 3 17 -6 24 -8 24 -25 7z"/>
<path d="M5419 2884 c-9 -11 -6 -14 20 -14 34 0 42 15 11 23 -10 3 -24 -1 -31
-9z"/>
<path d="M5488 2893 c7 -3 16 -2 19 1 4 3 -2 6 -13 5 -11 0 -14 -3 -6 -6z"/>
<path d="M1636 2874 c-26 -19 -16 -33 15 -20 20 8 24 14 15 22 -9 8 -17 8 -30
-2z"/>
<path d="M1835 2880 c-3 -5 -2 -17 3 -26 8 -14 10 -12 10 9 0 29 -3 33 -13 17z"/>
<path d="M5010 2881 c0 -5 -11 -12 -24 -15 -13 -3 -26 -11 -29 -18 -4 -13 3
-14 86 -8 l32 2 -27 9 c-17 7 -25 15 -21 25 3 8 0 14 -6 14 -6 0 -11 -4 -11
-9z"/>
<path d="M1705 2870 c-3 -5 1 -10 10 -10 9 0 13 5 10 10 -3 6 -8 10 -10 10 -2
0 -7 -4 -10 -10z"/>
<path d="M5495 2870 c-3 -6 1 -7 9 -4 18 7 21 14 7 14 -6 0 -13 -4 -16 -10z"/>
<path d="M5880 2864 c0 -8 -5 -14 -12 -14 -9 0 -9 -3 0 -12 9 -9 16 -8 30 5
10 9 22 14 27 10 4 -5 5 -3 2 3 -11 18 -47 24 -47 8z"/>
<path d="M1523 2848 c-2 -16 1 -18 10 -9 7 7 8 14 1 21 -6 6 -10 2 -11 -12z"/>
<path d="M1650 2835 c-20 -24 -2 -37 25 -18 12 10 21 21 18 26 -7 12 -30 8
-43 -8z"/>
<path d="M2136 2833 c-4 -9 -2 -21 4 -27 7 -7 10 -5 10 5 0 12 2 12 11 -1 9
-12 10 -12 5 3 -3 10 -6 23 -6 28 0 15 -17 10 -24 -8z"/>
<path d="M5507 2843 c-12 -11 -8 -23 8 -23 8 0 15 7 15 15 0 16 -12 20 -23 8z"/>
<path d="M5291 2824 c0 -11 3 -14 6 -6 3 7 2 16 -1 19 -3 4 -6 -2 -5 -13z"/>
<path d="M2643 2820 c-13 -5 -23 -16 -23 -25 0 -8 -8 -15 -17 -16 -13 0 -14
-2 -4 -6 8 -3 22 5 33 18 10 13 16 17 12 8 -3 -10 0 -20 6 -24 7 -4 14 2 17
14 3 12 9 21 14 21 5 0 9 5 9 10 0 12 -17 12 -47 0z"/>
<path d="M1840 2808 c0 -9 5 -20 10 -23 13 -8 13 5 0 25 -8 13 -10 13 -10 -2z"/>
<path d="M2184 2805 c5 -11 9 -26 9 -34 0 -10 4 -8 14 5 13 18 19 43 6 31 -3
-4 -13 -1 -21 6 -14 10 -15 9 -8 -8z"/>
<path d="M2010 2802 c0 -4 14 -16 30 -25 17 -10 30 -24 30 -32 0 -8 4 -16 8
-19 4 -2 8 13 7 35 0 21 -2 39 -5 40 -53 7 -70 7 -70 1z"/>
<path d="M2380 2750 c13 -23 20 -26 20 -6 0 8 -7 16 -15 20 -13 4 -14 2 -5
-14z"/>
<path d="M5370 2760 c8 -5 20 -10 25 -10 6 0 3 5 -5 10 -8 5 -19 10 -25 10 -5
0 -3 -5 5 -10z"/>
<path d="M5744 2763 c-12 -2 -24 -14 -28 -26 -7 -29 3 -36 20 -12 12 16 18 18
34 7 11 -6 27 -12 36 -12 13 0 11 5 -7 25 -13 13 -26 24 -29 23 -3 0 -15 -3
-26 -5z"/>
<path d="M1755 2750 c3 -5 11 -10 16 -10 6 0 7 5 4 10 -3 6 -11 10 -16 10 -6
0 -7 -4 -4 -10z"/>
<path d="M2412 2745 c2 -13 12 -21 28 -22 15 -2 19 0 10 4 -8 3 -21 13 -28 22
-11 14 -12 14 -10 -4z"/>
<path d="M2195 2730 c-4 -6 -1 -18 7 -27 11 -15 11 -16 -4 -10 -25 9 -33 -11
-12 -34 16 -17 19 -18 27 -4 4 8 12 13 18 10 13 -8 11 19 -3 50 -12 27 -23 32
-33 15z"/>
<path d="M1830 2720 c0 -5 5 -10 11 -10 5 0 7 5 4 10 -3 6 -8 10 -11 10 -2 0
-4 -4 -4 -10z"/>
<path d="M2630 2710 c0 -5 7 -10 16 -10 8 0 12 5 9 10 -3 6 -10 10 -16 10 -5
0 -9 -4 -9 -10z"/>
<path d="M2397 2703 c-4 -3 -7 -11 -7 -17 0 -6 5 -5 12 2 6 6 9 14 7 17 -3 3
-9 2 -12 -2z"/>
<path d="M2516 2699 c3 -6 0 -15 -7 -20 -18 -11 -32 -11 -25 0 3 5 -7 11 -23
13 -27 4 -28 3 -27 -38 1 -23 4 -40 9 -37 13 8 7 -18 -8 -34 -16 -16 -45 -11
-45 7 0 5 -7 10 -15 10 -8 0 -15 -6 -15 -14 0 -21 -21 -31 -31 -15 -6 10 -9
11 -9 2 0 -23 -20 -13 -20 10 -1 22 -1 22 -15 -3 -12 -22 -14 -22 -15 -6 0 16
-3 17 -12 8 -10 -10 -4 -20 25 -48 20 -20 37 -41 37 -46 0 -14 25 -4 26 10 3
25 4 25 17 10 18 -23 73 -31 92 -12 13 14 15 14 15 -1 0 -9 5 -13 10 -10 7 4
7 13 0 26 -7 11 -7 19 -1 19 5 0 11 -6 13 -12 3 -9 9 -8 21 4 12 12 13 18 4
21 -6 2 2 4 20 4 17 0 38 7 47 16 17 17 22 32 7 23 -5 -3 -11 3 -14 14 -3 11
-13 20 -24 19 -10 0 -13 -3 -5 -6 21 -8 2 -23 -22 -17 -16 4 -25 0 -30 -11 -5
-14 -8 -14 -19 -3 -7 7 -16 21 -20 32 -6 14 -4 17 9 12 12 -4 14 -1 9 14 -5
15 -2 20 12 20 10 0 29 7 42 16 18 13 20 18 10 25 -20 12 -31 11 -23 -2z"/>
<path d="M2590 2666 c0 -8 5 -18 10 -21 6 -3 10 3 10 14 0 12 -4 21 -10 21 -5
0 -10 -6 -10 -14z"/>
<path d="M2291 2654 c0 -11 3 -14 6 -6 3 7 2 16 -1 19 -3 4 -6 -2 -5 -13z"/>
<path d="M2526 2645 c4 -8 8 -15 10 -15 2 0 4 7 4 15 0 8 -4 15 -10 15 -5 0
-7 -7 -4 -15z"/>
<path d="M5191 2633 c1 -10 5 -31 9 -48 7 -28 8 -28 9 12 0 23 -3 45 -9 48 -5
3 -9 -2 -9 -12z"/>
<path d="M2174 2614 c3 -23 13 -26 18 -6 3 11 0 19 -7 19 -7 0 -12 -6 -11 -13z"/>
<path d="M2075 2576 c-21 -45 -29 -50 -55 -36 -24 13 -60 -2 -60 -25 0 -18
-17 -20 -22 -3 -2 6 -15 0 -31 -15 -28 -29 -47 -33 -78 -17 -10 6 -19 7 -19 2
0 -11 86 -52 110 -52 10 0 21 -4 24 -9 4 -5 27 -9 54 -9 45 0 46 0 22 13 -14
8 -35 14 -47 15 -15 0 -21 6 -20 20 1 12 8 20 19 20 13 0 18 8 18 30 0 37 12
39 30 5 16 -29 25 -32 34 -8 6 14 9 14 15 4 6 -8 10 -2 15 20 l6 32 20 -26
c19 -24 50 -88 50 -103 0 -4 -10 5 -23 19 -12 15 -28 27 -35 27 -18 0 -7 -69
14 -89 15 -15 16 -14 10 12 -7 30 -4 32 25 17 16 -9 19 -7 19 15 0 14 4 25 10
25 9 0 8 10 -7 48 -3 9 -7 19 -7 22 -1 3 -7 20 -15 38 -10 24 -16 30 -23 20
-7 -10 -11 -9 -22 5 -13 17 -15 16 -31 -17z m62 -28 c-3 -8 -6 -5 -6 6 -1 11
2 17 5 13 3 -3 4 -12 1 -19z"/>
<path d="M2660 2591 c0 -5 5 -13 10 -16 6 -3 10 -2 10 4 0 5 -4 13 -10 16 -5
3 -10 2 -10 -4z"/>
<path d="M2220 2580 c-8 -5 -24 -7 -35 -4 -18 4 -17 3 4 -15 26 -23 37 -26 46
-11 3 6 -1 7 -9 4 -21 -8 -20 6 2 22 20 15 14 18 -8 4z"/>
<path d="M2610 2582 c0 -5 8 -19 19 -31 16 -19 19 -19 25 -5 4 10 -1 22 -11
30 -21 16 -33 18 -33 6z"/>
<path d="M5635 2550 c3 -5 8 -10 11 -10 2 0 4 5 4 10 0 6 -5 10 -11 10 -5 0
-7 -4 -4 -10z"/>
<path d="M2545 2530 c-3 -5 -1 -10 4 -10 6 0 11 5 11 10 0 6 -2 10 -4 10 -3 0
-8 -4 -11 -10z"/>
<path d="M2651 2504 c0 -11 3 -14 6 -6 3 7 2 16 -1 19 -3 4 -6 -2 -5 -13z"/>
<path d="M2020 2450 c0 -12 28 -25 36 -17 3 3 -4 10 -15 17 -15 7 -21 7 -21 0z"/>
<path d="M2850 2446 c0 -2 7 -6 15 -10 8 -3 15 -1 15 4 0 6 -7 10 -15 10 -8 0
-15 -2 -15 -4z"/>
<path d="M4890 2421 c0 -9 33 -21 59 -21 11 0 9 4 -5 15 -21 16 -54 20 -54 6z"/>
<path d="M5350 2418 c0 -8 37 -48 44 -48 3 0 6 8 6 17 0 9 -3 13 -7 10 -3 -4
-15 0 -25 10 -10 9 -18 14 -18 11z"/>
<path d="M2825 2400 c-3 -5 1 -10 9 -10 9 0 16 5 16 10 0 6 -4 10 -9 10 -6 0
-13 -4 -16 -10z"/>
<path d="M5041 2394 c0 -11 3 -14 6 -6 3 7 2 16 -1 19 -3 4 -6 -2 -5 -13z"/>
<path d="M5410 2400 c0 -13 12 -19 26 -13 21 8 17 22 -6 20 -11 -1 -20 -4 -20
-7z"/>
<path d="M2401 2388 c-1 -22 18 -33 32 -19 8 8 7 11 -5 11 -9 0 -19 6 -21 13
-3 7 -6 6 -6 -5z"/>
<path d="M2775 2383 c-11 -3 -28 -13 -37 -23 -18 -19 -56 -17 -70 4 -4 6 -17
0 -32 -17 -14 -15 -31 -27 -37 -27 -7 0 -20 -7 -30 -16 -16 -15 -17 -14 -12 7
5 18 3 21 -11 16 -10 -4 -20 -7 -22 -7 -2 0 -4 -9 -4 -20 0 -19 -10 -25 -39
-20 -13 1 -13 -1 -1 -15 12 -15 12 -19 -3 -30 -22 -16 -12 -44 14 -38 22 6 25
19 7 26 -9 3 -5 13 11 31 28 29 38 28 21 -3 -14 -27 7 -51 44 -51 29 0 35 16
9 23 -14 3 -11 7 12 18 50 23 69 50 45 62 -6 3 -5 4 2 3 7 -1 14 -15 16 -29 2
-15 10 -27 18 -27 8 0 14 -10 14 -25 0 -39 17 -30 48 25 17 31 34 50 45 50 10
0 15 5 12 10 -3 6 -1 10 5 10 7 0 9 8 4 23 -4 12 -7 28 -7 35 0 6 -1 11 -1 11
-1 -1 -10 -4 -21 -6z"/>
<path d="M2846 2365 c4 -8 10 -15 15 -15 5 0 9 7 9 15 0 8 -7 15 -15 15 -9 0
-12 -6 -9 -15z"/>
<path d="M4970 2359 c0 -7 -3 -9 -7 -6 -3 4 -12 2 -19 -4 -9 -7 -19 -7 -33 0
-20 11 -40 -2 -21 -14 5 -3 10 -3 10 0 0 3 10 -1 22 -9 28 -20 42 -20 34 -1
-3 9 0 15 9 15 18 0 28 17 15 25 -5 3 -10 1 -10 -6z"/>
<path d="M5342 2320 c0 -14 2 -19 5 -12 2 6 2 18 0 25 -3 6 -5 1 -5 -13z"/>
<path d="M2869 2227 c-13 -10 -14 -14 -3 -24 10 -10 14 -8 19 8 9 26 4 30 -16
16z"/>
<path d="M2758 2179 c-10 -5 -18 -17 -18 -24 0 -8 -4 -15 -9 -15 -5 0 1 -20
13 -45 17 -37 25 -45 43 -42 13 2 20 0 16 -6 -3 -5 0 -8 8 -5 8 2 15 19 17 36
3 24 -1 32 -13 32 -11 0 -15 5 -11 15 3 8 1 15 -5 15 -7 0 -9 10 -5 25 7 27
-6 32 -36 14z"/>
<path d="M2900 2140 c0 -5 5 -10 11 -10 5 0 7 5 4 10 -3 6 -8 10 -11 10 -2 0
-4 -4 -4 -10z"/>
<path d="M5160 2143 c0 -5 5 -15 10 -23 7 -12 9 -10 7 8 -1 19 -17 33 -17 15z"/>
<path d="M3712 2094 c9 -9 21 -13 28 -9 14 9 -5 25 -30 25 -12 0 -12 -3 2 -16z"/>
<path d="M2288 2059 c-10 -5 -18 -17 -18 -24 0 -23 16 -17 28 10 6 14 11 25 9
25 -1 0 -10 -5 -19 -11z"/>
<path d="M2098 1856 c-27 -21 -27 -22 -8 -34 22 -13 26 -43 10 -73 -11 -20 3
-28 15 -9 4 6 11 7 17 4 7 -5 9 -1 5 9 -3 8 0 21 8 27 17 14 12 45 -8 44 -12
-1 -14 3 -7 22 13 32 0 36 -32 10z"/>
<path d="M5570 1796 c0 -9 5 -16 10 -16 6 0 10 4 10 9 0 6 -4 13 -10 16 -5 3
-10 -1 -10 -9z"/>
<path d="M5368 1789 c-22 -12 -23 -29 -4 -29 8 0 17 -6 19 -12 4 -10 8 -9 16
2 8 11 7 18 -4 26 -8 6 -12 14 -8 17 9 10 1 8 -19 -4z"/>
<path d="M2233 1765 c0 -8 4 -12 9 -9 4 3 8 9 8 15 0 5 -4 9 -8 9 -5 0 -9 -7
-9 -15z"/>
<path d="M4793 1773 c4 -3 5 -9 1 -14 -3 -5 4 -9 15 -9 11 0 23 5 26 10 3 6 0
10 -9 10 -8 0 -20 2 -28 3 -7 2 -10 2 -5 0z"/>
<path d="M2265 1760 c3 -5 8 -10 11 -10 2 0 4 5 4 10 0 6 -5 10 -11 10 -5 0
-7 -4 -4 -10z"/>
<path d="M5560 1760 c0 -5 -7 -10 -15 -10 -8 0 -15 -7 -15 -16 0 -9 -5 -12
-11 -8 -19 11 -2 -42 26 -84 13 -20 37 -86 52 -147 20 -80 29 -102 32 -80 4
35 -18 165 -27 165 -4 0 -12 11 -19 25 -9 21 -9 25 4 25 8 0 13 6 10 13 -2 6
-11 11 -18 9 -8 -2 -11 0 -6 4 4 4 -1 16 -10 27 -17 20 -17 20 2 13 11 -5 27
-9 35 -9 8 0 22 -10 32 -21 15 -18 17 -19 18 -4 0 9 -5 20 -11 24 -6 3 -9 14
-6 24 2 10 1 24 -4 31 -6 11 -9 10 -15 -4 -3 -9 -11 -17 -17 -17 -6 0 -7 3 -4
6 8 9 -11 44 -23 44 -6 0 -10 -4 -10 -10z"/>
<path d="M4725 1750 c-3 -5 1 -10 9 -10 8 0 18 5 21 10 3 6 -1 10 -9 10 -8 0
-18 -4 -21 -10z"/>
<path d="M5355 1740 c3 -5 8 -10 11 -10 2 0 4 5 4 10 0 6 -5 10 -11 10 -5 0
-7 -4 -4 -10z"/>
<path d="M2460 1730 c8 -5 10 -15 6 -26 -4 -10 -1 -21 6 -26 22 -13 30 -9 23
12 -4 12 -2 26 3 33 8 9 3 13 -20 14 -19 0 -26 -2 -18 -7z"/>
<path d="M2127 1713 c3 -7 -2 -31 -11 -53 -20 -49 -21 -109 -3 -144 17 -32 27
-24 27 21 0 19 5 43 11 54 7 15 7 29 0 51 -8 23 -7 35 4 51 21 30 19 37 -9 35
-15 -1 -22 -7 -19 -15z"/>
<path d="M2290 1706 c0 -9 5 -16 10 -16 6 0 10 4 10 9 0 6 -4 13 -10 16 -5 3
-10 -1 -10 -9z"/>
<path d="M5240 1712 c-8 -3 -21 -14 -28 -24 -7 -10 -19 -15 -25 -12 -7 4 -9 4
-5 -1 4 -4 3 -14 -3 -21 -7 -8 -6 -14 2 -20 7 -4 9 -3 5 4 -3 6 -2 13 4 17 5
3 10 -2 10 -11 0 -31 14 -3 19 37 1 10 41 18 41 9 0 -5 -9 -12 -20 -15 -11 -4
-17 -11 -14 -17 4 -6 10 -5 16 3 7 11 11 11 15 1 2 -6 8 -10 13 -7 5 3 19 1
33 -4 22 -8 23 -7 19 15 -2 13 -9 24 -14 24 -5 0 -6 5 -2 11 5 8 -1 10 -19 7
-15 -3 -28 -2 -29 2 -2 4 -10 5 -18 2z m68 -47 c-2 -2 -14 -2 -26 2 -18 4 -20
8 -11 19 9 11 14 11 26 -2 9 -8 14 -17 11 -19z"/>
<path d="M3130 1696 c0 -9 -15 -26 -34 -38 -26 -17 -33 -28 -31 -51 1 -15 8
-34 15 -40 10 -10 11 -7 5 11 -3 12 -2 22 3 22 11 0 40 -31 42 -45 1 -5 4 -12
7 -15 4 -3 4 0 1 5 -3 6 0 16 8 23 12 11 14 10 14 -3 0 -8 5 -15 11 -15 7 0 6
8 -4 23 -8 12 -20 21 -26 20 -6 -2 -11 11 -11 28 0 16 4 28 9 25 12 -8 41 4
41 16 0 5 -4 6 -10 3 -5 -3 -10 0 -10 8 0 8 -7 20 -15 27 -12 10 -15 10 -15
-4z"/>
<path d="M5733 1679 c-34 -21 -35 -42 -4 -66 21 -16 31 -16 31 1 0 7 10 16 21
19 15 4 20 11 15 22 -3 9 -6 23 -6 31 0 20 -19 17 -57 -7z"/>
<path d="M2896 1675 c-3 -8 -1 -15 4 -15 6 0 10 7 10 15 0 8 -2 15 -4 15 -2 0
-6 -7 -10 -15z"/>
<path d="M4997 1671 c-3 -14 -1 -18 9 -14 16 6 18 19 5 27 -5 3 -11 -3 -14
-13z"/>
<path d="M1958 1673 c0 -5 -2 -13 -2 -20 -1 -7 -9 -18 -18 -25 -32 -24 -5 -72
28 -50 15 9 29 86 15 77 -7 -3 -8 0 -5 9 3 9 1 16 -5 16 -6 0 -12 -3 -13 -7z"/>
<path d="M2257 1672 c-6 -11 4 -82 12 -82 4 0 7 10 8 23 0 12 3 29 7 38 7 16
-19 36 -27 21z"/>
<path d="M2351 1661 c-9 -6 -10 -11 -2 -15 6 -4 11 -2 11 4 0 6 5 8 12 4 7 -4
8 -3 4 4 -8 14 -7 14 -25 3z"/>
<path d="M2862 1650 c0 -14 2 -19 5 -12 2 6 2 18 0 25 -3 6 -5 1 -5 -13z"/>
<path d="M4502 1650 c0 -14 2 -19 5 -12 2 6 2 18 0 25 -3 6 -5 1 -5 -13z"/>
<path d="M3037 1653 c-4 -3 -7 -11 -7 -17 0 -6 5 -5 12 2 6 6 9 14 7 17 -3 3
-9 2 -12 -2z"/>
<path d="M3952 1608 c-22 -42 -20 -69 1 -33 14 23 28 67 23 72 -2 2 -13 -15
-24 -39z"/>
<path d="M2290 1630 c0 -5 5 -10 10 -10 6 0 10 5 10 10 0 6 -4 10 -10 10 -5 0
-10 -4 -10 -10z"/>
<path d="M2873 1625 c-10 -11 -9 -15 8 -20 25 -8 31 -3 23 19 -7 19 -15 20
-31 1z"/>
<path d="M5990 1631 c0 -5 5 -13 10 -16 6 -3 10 -2 10 4 0 5 -4 13 -10 16 -5
3 -10 2 -10 -4z"/>
<path d="M2445 1619 c-4 -6 -4 -13 -1 -16 3 -4 6 -1 6 6 0 7 5 9 10 6 6 -4 8
-10 5 -15 -3 -5 0 -12 6 -16 7 -4 9 -3 5 4 -3 6 -2 13 4 17 5 3 10 -1 10 -9 0
-21 27 -9 33 15 3 10 1 19 -4 19 -5 0 -9 -7 -9 -16 0 -14 -2 -14 -22 0 -26 19
-35 20 -43 5z"/>
<path d="M2565 1620 c3 -5 8 -10 11 -10 2 0 4 5 4 10 0 6 -5 10 -11 10 -5 0
-7 -4 -4 -10z"/>
<path d="M3012 1614 c3 -12 1 -29 -4 -39 -13 -23 11 -16 26 7 7 12 5 21 -9 34
-18 19 -18 18 -13 -2z"/>
<path d="M5135 1608 c-11 -12 -14 -18 -6 -13 9 5 12 3 9 -6 -3 -8 -12 -13 -22
-11 -18 3 -20 -6 -6 -28 7 -12 10 -12 10 -1 0 8 6 11 16 7 10 -4 13 -2 8 6 -4
6 1 17 11 25 11 7 14 13 7 13 -6 0 -9 7 -6 15 8 20 3 18 -21 -7z"/>
<path d="M5935 1620 c-3 -6 1 -7 9 -4 18 7 21 14 7 14 -6 0 -13 -4 -16 -10z"/>
<path d="M2313 1613 c-19 -7 -16 -20 7 -26 21 -5 25 0 12 19 -4 6 -13 9 -19 7z"/>
<path d="M2386 1611 c-4 -6 -9 -24 -11 -40 -3 -24 0 -29 13 -24 9 4 11 8 4 11
-8 2 -8 11 -1 29 10 26 6 43 -5 24z"/>
<path d="M4468 1603 c-3 -12 -1 -24 6 -27 6 -2 -5 -5 -24 -5 -26 -1 -31 -4
-20 -11 26 -17 46 -11 58 15 14 31 15 38 3 31 -5 -4 -11 -1 -13 6 -3 7 -7 3
-10 -9z"/>
<path d="M5797 1600 c3 -11 13 -20 22 -20 10 0 17 9 18 20 1 15 -4 20 -22 20
-18 0 -22 -4 -18 -20z"/>
<path d="M2791 1606 c2 -2 22 -6 44 -9 27 -4 35 -3 25 3 -14 9 -79 15 -69 6z"/>
<path d="M2970 1595 c0 -8 2 -15 4 -15 2 0 6 7 10 15 3 8 1 15 -4 15 -6 0 -10
-7 -10 -15z"/>
<path d="M4426 1595 c-3 -9 0 -15 9 -15 8 0 15 7 15 15 0 8 -4 15 -9 15 -5 0
-11 -7 -15 -15z"/>
<path d="M5066 1597 c3 -10 9 -15 12 -12 3 3 0 11 -7 18 -10 9 -11 8 -5 -6z"/>
<path d="M5710 1600 c0 -5 4 -10 9 -10 5 0 7 -10 5 -22 -4 -21 -4 -21 4 -3 5
11 7 26 5 33 -6 14 -23 16 -23 2z"/>
<path d="M2600 1584 c0 -8 5 -12 10 -9 6 4 8 11 5 16 -9 14 -15 11 -15 -7z"/>
<path d="M4670 1585 c-14 -8 -32 -12 -42 -9 -9 3 -19 0 -23 -5 -4 -7 12 -10
45 -10 42 1 50 5 50 20 0 22 2 22 -30 4z"/>
<path d="M4771 1590 c-19 -11 -22 -50 -4 -50 8 0 11 -4 8 -10 -3 -5 -2 -10 2
-10 5 0 14 9 21 20 11 18 10 20 -10 20 -17 0 -19 3 -9 9 7 5 12 14 10 20 -3 6
-9 7 -18 1z"/>
<path d="M2428 1583 c7 -3 16 -2 19 1 4 3 -2 6 -13 5 -11 0 -14 -3 -6 -6z"/>
<path d="M2565 1580 c-3 -6 1 -7 9 -4 18 7 21 14 7 14 -6 0 -13 -4 -16 -10z"/>
<path d="M4805 1580 c-3 -6 1 -7 9 -4 18 7 21 14 7 14 -6 0 -13 -4 -16 -10z"/>
<path d="M4905 1581 c2 -2 -2 -10 -10 -17 -7 -8 -16 -19 -18 -26 -4 -9 -10 -8
-21 6 -9 12 -16 14 -16 7 0 -16 -26 -42 -33 -34 -9 8 0 -34 11 -53 8 -14 11
-12 17 12 5 16 8 32 7 37 -3 10 6 9 28 -3 16 -9 18 -8 13 6 -5 13 -3 15 7 9 9
-5 11 -4 6 3 -4 7 -2 12 5 12 6 0 9 -8 6 -20 -3 -11 0 -23 5 -27 7 -3 8 -1 4
5 -4 7 -4 12 1 13 4 0 17 2 28 4 10 2 26 -2 34 -8 12 -9 13 -9 7 1 -4 7 -1 15
8 18 9 3 16 12 16 19 0 7 6 16 13 18 8 4 7 6 -3 6 -8 1 -21 -9 -29 -20 -10
-18 -15 -19 -22 -8 -7 12 -9 12 -9 0 0 -10 -3 -11 -13 -2 -8 6 -16 8 -19 5 -3
-2 -8 2 -11 11 -4 9 -1 15 8 15 8 0 15 -4 15 -10 0 -5 5 -10 11 -10 6 0 8 7 5
16 -6 15 -4 15 10 3 15 -12 17 -12 12 1 -3 10 -18 15 -41 15 -19 0 -34 -1 -32
-4z"/>
<path d="M5050 1565 l25 -28 -27 5 c-16 3 -25 1 -22 -4 4 -6 17 -8 30 -5 16 3
24 0 24 -10 0 -8 5 -11 10 -8 12 7 -16 47 -45 65 -16 10 -15 7 5 -15z"/>
<path d="M2011 1564 c0 -11 3 -14 6 -6 3 7 2 16 -1 19 -3 4 -6 -2 -5 -13z"/>
<path d="M4397 1573 c-4 -3 -7 -11 -7 -17 0 -6 5 -5 12 2 6 6 9 14 7 17 -3 3
-9 2 -12 -2z"/>
<path d="M2496 1561 c-5 -8 40 -9 47 -1 3 3 -6 6 -19 6 -13 1 -26 -1 -28 -5z"/>
<path d="M4112 1545 c0 -16 2 -22 5 -12 2 9 2 23 0 30 -3 6 -5 -1 -5 -18z"/>
<path d="M4271 1538 c-1 -21 4 -38 9 -38 12 0 12 27 0 55 -7 16 -9 13 -9 -17z"/>
<path d="M4295 1560 c3 -5 8 -10 11 -10 2 0 4 5 4 10 0 6 -5 10 -11 10 -5 0
-7 -4 -4 -10z"/>
<path d="M4720 1560 c-13 -8 -12 -10 3 -10 9 0 17 5 17 10 0 12 -1 12 -20 0z"/>
<path d="M5680 1556 c0 -8 5 -18 10 -21 6 -3 10 3 10 14 0 12 -4 21 -10 21 -5
0 -10 -6 -10 -14z"/>
<path d="M2620 1549 c0 -5 5 -7 10 -4 6 3 10 8 10 11 0 2 -4 4 -10 4 -5 0 -10
-5 -10 -11z"/>
<path d="M4529 1543 c-13 -15 -12 -15 9 -4 23 12 28 21 13 21 -5 0 -15 -7 -22
-17z"/>
<path d="M2693 1535 c0 -8 4 -15 9 -15 4 0 8 4 8 9 0 6 -4 12 -8 15 -5 3 -9
-1 -9 -9z"/>
<path d="M3080 1535 c0 -8 4 -15 10 -15 5 0 7 7 4 15 -4 8 -8 15 -10 15 -2 0
-4 -7 -4 -15z"/>
<path d="M4330 1531 c0 -18 27 -37 38 -26 3 2 -3 7 -12 11 -9 3 -16 10 -16 16
0 5 5 6 10 3 6 -3 10 -1 10 4 0 6 -7 11 -15 11 -8 0 -15 -9 -15 -19z"/>
<path d="M4622 1531 c9 -13 14 -31 12 -40 -3 -9 2 -5 11 9 9 14 14 17 11 8 -3
-10 0 -20 6 -24 6 -4 8 -3 4 4 -3 5 0 12 6 15 15 5 6 18 -15 21 -8 1 -23 8
-33 16 -17 14 -17 14 -2 -9z"/>
<path d="M4670 1543 c0 -5 27 -33 33 -33 13 0 0 29 -15 33 -10 3 -18 3 -18 0z"/>
<path d="M3020 1523 c0 -14 -2 -15 -9 -4 -5 8 -11 9 -15 3 -6 -9 14 -22 35
-22 12 0 12 27 -1 35 -5 3 -10 -2 -10 -12z"/>
<path d="M3668 1533 c7 -3 16 -2 19 1 4 3 -2 6 -13 5 -11 0 -14 -3 -6 -6z"/>
<path d="M4240 1524 c0 -8 -4 -12 -10 -9 -5 3 -10 1 -10 -4 0 -6 7 -11 15 -11
8 0 15 9 15 20 0 11 -2 20 -5 20 -3 0 -5 -7 -5 -16z"/>
<path d="M4300 1525 c0 -8 4 -15 10 -15 5 0 7 7 4 15 -4 8 -8 15 -10 15 -2 0
-4 -7 -4 -15z"/>
<path d="M4559 1519 c-13 -11 -19 -18 -12 -14 7 3 21 -3 32 -14 11 -11 23 -16
26 -11 4 6 2 10 -3 10 -5 0 -12 9 -15 20 -6 25 1 26 20 3 13 -16 13 -16 3 5
-13 27 -21 28 -51 1z"/>
<path d="M2726 1521 c-4 -5 3 -7 14 -4 23 6 26 13 6 13 -8 0 -17 -4 -20 -9z"/>
<path d="M3145 1520 c-3 -5 -1 -10 4 -10 6 0 11 5 11 10 0 6 -2 10 -4 10 -3 0
-8 -4 -11 -10z"/>
<path d="M3580 1519 c0 -5 5 -7 10 -4 6 3 10 8 10 11 0 2 -4 4 -10 4 -5 0 -10
-5 -10 -11z"/>
<path d="M4171 1518 c0 -10 -5 -18 -11 -18 -5 0 -7 -7 -4 -15 4 -8 1 -16 -5
-16 -26 -3 -30 -4 -37 -11 -17 -17 25 -7 49 12 14 11 30 20 36 20 6 0 11 7 11
16 0 13 -3 14 -14 5 -11 -10 -15 -8 -19 6 -4 17 -5 17 -6 1z"/>
<path d="M4486 1514 c-11 -7 -18 -16 -15 -18 2 -2 13 2 23 10 11 7 18 16 15
18 -2 2 -13 -2 -23 -10z"/>
<path d="M3350 1504 c0 -8 5 -12 10 -9 6 3 10 10 10 16 0 5 -4 9 -10 9 -5 0
-10 -7 -10 -16z"/>
<path d="M3384 1494 c-4 -14 -2 -30 3 -35 5 -5 10 5 11 26 3 41 -5 46 -14 9z"/>
<path d="M2788 1489 c13 -5 38 -11 55 -14 16 -3 35 -9 40 -12 5 -3 7 0 5 8 -3
8 -17 14 -31 14 -15 -1 -27 3 -27 7 0 4 -15 8 -32 7 -31 0 -31 -1 -10 -10z"/>
<path d="M4427 1493 c-3 -5 1 -14 8 -20 11 -10 13 -9 12 7 -1 20 -12 26 -20
13z"/>
<path d="M4524 1491 c5 -8 3 -11 -5 -10 -19 3 -49 -11 -49 -23 0 -6 6 -5 15 2
12 10 15 10 15 0 0 -7 9 -20 20 -30 18 -15 23 -16 70 -1 27 8 50 21 50 28 0
15 -26 17 -35 3 -3 -5 -15 -10 -26 -10 -11 0 -18 -4 -14 -9 3 -6 -4 -9 -16 -8
-11 1 -25 9 -30 18 -7 14 -5 16 14 13 12 -2 16 -2 9 2 -6 3 -10 10 -7 14 3 5
0 12 -6 16 -8 5 -9 3 -5 -5z"/>
<path d="M4686 1485 c4 -8 9 -15 13 -15 4 0 8 7 8 15 0 8 -6 15 -13 15 -8 0
-11 -6 -8 -15z"/>
<path d="M4725 1489 c-4 -6 -4 -13 -1 -16 3 -3 -2 -12 -12 -19 -9 -7 -12 -13
-7 -13 6 0 19 6 30 15 16 12 17 16 6 23 -11 7 -9 10 10 14 22 4 22 4 2 6 -12
0 -25 -4 -28 -10z"/>
<path d="M5096 1487 c3 -10 9 -15 12 -12 3 3 0 11 -7 18 -10 9 -11 8 -5 -6z"/>
<path d="M4320 1481 c0 -5 -9 -11 -20 -13 -11 -2 -17 -7 -12 -14 5 -7 15 -3
32 12 13 13 19 24 12 24 -6 0 -12 -4 -12 -9z"/>
<path d="M4560 1481 c0 -6 4 -13 10 -16 6 -3 7 1 4 9 -7 18 -14 21 -14 7z"/>
<path d="M3085 1469 c-4 -6 -5 -12 -2 -15 2 -3 7 2 10 11 7 17 1 20 -8 4z"/>
<path d="M4768 1458 c3 -12 7 -17 10 -10 2 6 8 12 13 12 6 0 7 -4 4 -10 -3 -5
-1 -10 4 -10 18 0 12 19 -8 30 -27 14 -30 13 -23 -12z"/>
<path d="M5825 1470 c3 -5 8 -10 11 -10 2 0 4 5 4 10 0 6 -5 10 -11 10 -5 0
-7 -4 -4 -10z"/>
<path d="M3110 1460 c0 -5 5 -10 11 -10 5 0 7 5 4 10 -3 6 -8 10 -11 10 -2 0
-4 -4 -4 -10z"/>
<path d="M4082 1450 c-9 -20 -11 -22 -11 -6 -1 11 -4 17 -7 13 -4 -3 -3 -18 0
-33 l7 -27 15 22 c9 12 14 29 11 39 -3 14 -6 12 -15 -8z"/>
<path d="M4365 1460 c-3 -5 -15 -10 -26 -10 -12 0 -19 -7 -19 -19 0 -15 -8
-21 -32 -23 -18 -2 -32 -8 -31 -14 1 -7 -8 -9 -22 -6 -14 2 -25 8 -25 13 0 5
-5 9 -10 9 -7 0 -7 -6 0 -20 9 -16 8 -19 -6 -13 -14 5 -16 2 -12 -15 4 -15 3
-20 -5 -15 -7 4 -20 6 -29 5 -10 -2 -18 2 -18 9 0 8 -7 6 -19 -5 -23 -21 -17
-48 7 -39 9 4 21 11 25 17 6 8 10 7 14 -1 4 -10 9 -10 26 -1 12 7 25 11 30 10
4 -1 7 4 7 12 0 9 16 14 58 15 80 3 103 7 137 25 27 14 28 16 8 16 -13 0 -23
5 -23 11 0 6 9 9 19 6 23 -6 18 18 -5 27 -10 4 -12 2 -8 -6 5 -7 2 -9 -9 -5
-9 3 -18 0 -21 -9 -3 -8 -2 -13 3 -10 7 5 21 -14 21 -28 0 -1 -10 -2 -21 -3
-12 -1 -19 1 -15 4 8 9 -15 34 -25 27 -5 -3 -9 0 -9 5 0 6 6 11 14 11 7 0 19
7 26 15 7 8 10 15 7 15 -3 0 -9 -4 -12 -10z m-235 -120 c0 -5 -5 -10 -11 -10
-5 0 -7 5 -4 10 3 6 8 10 11 10 2 0 4 -4 4 -10z"/>
<path d="M4650 1466 c0 -2 9 -6 20 -9 11 -3 18 -1 14 4 -5 9 -34 13 -34 5z"/>
<path d="M4205 1447 c-12 -10 -14 -16 -7 -21 7 -4 12 -2 12 3 0 6 4 11 10 11
5 0 7 -8 4 -17 -5 -16 -4 -16 10 1 25 31 5 47 -29 23z"/>
<path d="M5683 1453 c-15 -5 -18 -33 -4 -33 8 0 25 30 19 35 -2 1 -9 0 -15 -2z"/>
<path d="M6135 1447 c-4 -10 -5 -21 -1 -24 10 -10 18 4 13 24 -4 17 -4 17 -12
0z"/>
<path d="M3460 1439 c0 -15 -44 -28 -52 -15 -6 8 -8 8 -8 0 0 -7 8 -22 18 -34
17 -21 19 -21 25 -6 4 9 3 14 -2 11 -5 -3 -12 -1 -15 4 -6 10 25 22 67 24 16
1 27 -3 27 -11 0 -7 5 -10 11 -6 6 3 15 0 20 -7 4 -7 12 -10 16 -5 4 4 -1 14
-11 22 -22 16 -14 19 12 5 9 -5 26 -5 37 0 18 7 17 8 -7 8 -15 1 -29 5 -33 10
-3 5 -17 6 -33 2 -15 -5 -37 -4 -50 0 -13 5 -22 5 -22 -2z"/>
<path d="M4260 1441 c0 -5 7 -11 14 -14 10 -4 13 -1 9 9 -6 15 -23 19 -23 5z"/>
<path d="M4144 1418 c-5 -7 -3 -8 6 -3 8 5 11 3 8 -6 -3 -8 -18 -16 -34 -19
-16 -3 -24 -8 -19 -11 25 -14 74 8 72 31 -1 22 -22 27 -33 8z"/>
<path d="M4485 1420 c-3 -5 -1 -10 4 -10 6 0 11 5 11 10 0 6 -2 10 -4 10 -3 0
-8 -4 -11 -10z"/>
<path d="M3373 1414 c3 -3 -3 -15 -13 -27 -11 -11 -17 -23 -14 -26 3 -3 10 2
15 11 5 10 16 15 24 12 10 -4 12 0 8 15 -3 12 -10 21 -16 21 -6 0 -8 -3 -4 -6z"/>
<path d="M4110 1410 c0 -5 5 -10 10 -10 6 0 10 5 10 10 0 6 -4 10 -10 10 -5 0
-10 -4 -10 -10z"/>
<path d="M5758 1399 c-19 -20 -24 -34 -9 -25 5 4 11 0 14 -6 6 -17 13 -9 21
25 7 31 -2 33 -26 6z"/>
<path d="M5848 1395 c-4 -20 -3 -23 8 -14 16 13 19 39 5 39 -5 0 -11 -11 -13
-25z"/>
<path d="M3480 1406 c0 -2 7 -6 15 -10 8 -3 15 -1 15 4 0 6 -7 10 -15 10 -8 0
-15 -2 -15 -4z"/>
<path d="M3626 1384 c-6 -15 -4 -15 11 -3 10 7 20 15 22 16 2 2 -3 3 -11 3 -9
0 -19 -7 -22 -16z"/>
<path d="M4025 1390 c-3 -5 -1 -10 4 -10 6 0 11 5 11 10 0 6 -2 10 -4 10 -3 0
-8 -4 -11 -10z"/>
<path d="M3255 1380 c-3 -6 1 -7 9 -4 18 7 21 14 7 14 -6 0 -13 -4 -16 -10z"/>
<path d="M3980 1381 c0 -5 8 -15 18 -22 15 -12 16 -12 5 2 -7 9 -10 19 -6 22
3 4 1 7 -5 7 -7 0 -12 -4 -12 -9z"/>
<path d="M3285 1369 c-11 -16 -1 -19 13 -3 7 8 8 14 3 14 -5 0 -13 -5 -16 -11z"/>
<path d="M3510 1360 c0 -11 6 -20 13 -21 6 0 24 -3 38 -5 15 -2 31 1 37 8 8
10 3 14 -21 15 -17 0 -33 6 -35 12 -6 19 -32 12 -32 -9z"/>
<path d="M3802 1363 c6 -7 14 -13 18 -13 3 0 7 6 7 13 0 7 -8 13 -18 13 -13 0
-15 -3 -7 -13z"/>
<path d="M4066 1367 c3 -10 9 -15 12 -12 3 3 0 11 -7 18 -10 9 -11 8 -5 -6z"/>
<path d="M3660 1355 c7 -8 16 -12 21 -9 13 8 1 24 -18 24 -13 0 -13 -3 -3 -15z"/>
<path d="M3915 1360 c-16 -7 -17 -9 -3 -9 9 -1 20 4 23 9 7 11 7 11 -20 0z"/>
<path d="M3400 1350 c0 -5 7 -10 15 -10 8 0 15 5 15 10 0 6 -7 10 -15 10 -8 0
-15 -4 -15 -10z"/>
<path d="M3741 1339 c8 -16 6 -21 -13 -28 -15 -6 -28 -5 -37 3 -12 9 -12 8 -3
-11 8 -14 9 -24 2 -28 -15 -9 -12 -25 5 -25 8 0 15 7 15 15 0 8 6 15 13 15 8
0 7 4 -3 10 -13 8 -13 10 2 10 9 0 23 7 32 15 13 14 16 14 24 -1 8 -15 10 -15
15 0 4 10 3 15 -2 12 -5 -3 -11 0 -14 8 -3 7 -15 16 -26 19 -18 4 -19 2 -10
-14z"/>
<path d="M5630 1317 c0 -26 4 -47 9 -47 8 0 3 79 -5 89 -2 2 -4 -17 -4 -42z"/>
<path d="M5680 1313 c-14 -26 -28 -50 -32 -53 -4 -3 -5 -39 -3 -80 4 -96 3
-92 15 -85 6 3 10 1 10 -4 0 -6 -4 -11 -10 -11 -5 0 -10 -8 -9 -17 0 -15 3
-14 16 5 18 25 33 29 33 7 0 -22 14 -18 25 7 6 13 18 24 29 26 10 2 16 0 12
-6 -8 -13 41 -45 55 -36 7 4 8 9 1 13 -6 3 -13 31 -16 61 -6 53 -19 80 -32 67
-4 -3 -7 -16 -7 -29 0 -18 -5 -23 -28 -24 -15 -1 -35 -8 -44 -18 -20 -20 -29
-21 -21 -1 3 8 0 15 -6 15 -6 0 4 10 23 23 23 15 34 31 36 50 1 15 -2 25 -6
23 -5 -3 -3 15 2 40 7 29 13 40 19 32 6 -10 8 -8 8 5 0 9 0 20 1 24 0 4 -4 9
-9 11 -6 2 -18 -20 -27 -47 -9 -28 -21 -53 -26 -56 -12 -8 -12 -3 7 40 24 58
12 72 -16 18z m120 -207 c0 -3 -4 -8 -10 -11 -5 -3 -10 -1 -10 4 0 6 5 11 10
11 6 0 10 -2 10 -4z"/>
<path d="M5996 1327 c-11 -26 -19 -35 -30 -31 -11 4 -16 0 -16 -14 0 -23 30
-37 60 -27 11 3 20 13 20 21 0 8 -4 12 -10 9 -6 -3 -10 4 -10 17 0 18 2 20 10
8 8 -12 10 -12 10 5 0 11 -4 26 -9 34 -7 11 -13 6 -25 -22z"/>
<path d="M3326 1334 c-20 -19 -20 -24 -1 -24 8 0 15 6 15 14 0 8 6 17 13 19 8
4 9 6 0 6 -6 1 -19 -6 -27 -15z"/>
<path d="M3845 1340 c-3 -5 1 -10 10 -10 9 0 13 5 10 10 -3 6 -8 10 -10 10 -2
0 -7 -4 -10 -10z"/>
<path d="M3936 1335 c-10 -8 -22 -13 -25 -10 -4 2 -7 -9 -6 -25 0 -18 3 -26 9
-20 6 6 20 10 32 10 13 0 26 4 29 10 3 6 -1 7 -10 4 -13 -5 -15 -1 -11 20 3
14 4 26 3 26 -1 0 -11 -7 -21 -15z"/>
<path d="M6048 1320 c-3 -17 -1 -33 3 -35 4 -3 9 11 11 30 5 43 -8 47 -14 5z"/>
<path d="M1781 1324 c0 -11 3 -14 6 -6 3 7 2 16 -1 19 -3 4 -6 -2 -5 -13z"/>
<path d="M4055 1323 c3 -8 5 -18 5 -21 0 -8 20 20 20 29 0 3 -7 6 -15 6 -10 0
-14 -6 -10 -14z"/>
<path d="M3605 1320 c4 -6 11 -8 16 -5 14 9 11 15 -7 15 -8 0 -12 -5 -9 -10z"/>
<path d="M6110 1320 c19 -13 30 -13 30 0 0 6 -10 10 -22 10 -19 0 -20 -2 -8
-10z"/>
<path d="M1985 1286 c-4 -17 -4 -31 2 -35 6 -3 13 -13 16 -21 8 -22 6 18 -3
55 l-7 30 -8 -29z"/>
<path d="M3856 1301 l-30 -6 26 -12 c22 -10 27 -9 32 4 8 20 7 20 -28 14z"/>
<path d="M5795 1216 c8 -11 21 -33 28 -49 8 -15 17 -24 21 -20 4 4 11 1 16 -7
18 -29 10 9 -11 53 -17 34 -27 45 -46 45 -22 0 -23 -2 -8 -22z"/>
<path d="M1927 1224 c-4 -4 -7 -17 -7 -28 1 -19 1 -20 11 -3 11 19 8 43 -4 31z"/>
<path d="M5930 1180 c0 -5 5 -10 11 -10 5 0 7 5 4 10 -3 6 -8 10 -11 10 -2 0
-4 -4 -4 -10z"/>
<path d="M5895 1150 c-8 -26 -3 -33 19 -24 19 7 18 35 -1 41 -6 2 -14 -5 -18
-17z"/>
<path d="M5950 1149 c0 -5 5 -7 10 -4 6 3 10 8 10 11 0 2 -4 4 -10 4 -5 0 -10
-5 -10 -11z"/>
<path d="M5970 1125 c-7 -9 -11 -18 -8 -20 3 -3 11 1 18 10 7 9 11 18 8 20 -3
3 -11 -1 -18 -10z"/>
<path d="M5757 1034 c-10 -13 -22 -22 -28 -19 -5 4 -5 -4 1 -19 11 -29 2 -38
-33 -36 -12 1 -28 2 -34 1 -15 -1 -18 -51 -3 -51 6 0 10 5 10 10 0 6 7 10 15
10 23 0 85 33 85 45 0 6 -6 17 -12 25 -11 12 -10 12 4 2 13 -11 18 -10 24 0 6
9 10 6 15 -12 l6 -25 12 29 c10 24 9 32 -5 47 -23 25 -35 23 -57 -7z"/>
<path d="M5951 1024 c-32 -40 -25 -50 9 -14 32 35 35 40 21 40 -5 0 -19 -12
-30 -26z"/>
<path d="M5980 1005 c-5 -14 -13 -38 -17 -53 -6 -24 -5 -25 8 -12 9 8 21 30
27 49 15 41 15 41 2 41 -6 0 -15 -11 -20 -25z"/>
<path d="M5837 1013 c-9 -9 -9 -61 1 -66 4 -3 7 12 7 34 0 21 0 39 -1 39 0 0
-4 -3 -7 -7z"/>
<path d="M5651 994 c0 -11 3 -14 6 -6 3 7 2 16 -1 19 -3 4 -6 -2 -5 -13z"/>
<path d="M6120 991 c0 -12 -3 -21 -7 -21 -5 0 -13 -11 -20 -25 -12 -27 -7 -31
18 -12 20 15 33 64 19 72 -5 3 -10 -3 -10 -14z"/>
<path d="M5776 942 c-3 -5 -4 -24 -2 -41 2 -21 -1 -31 -10 -31 -20 0 -17 -18
5 -29 10 -6 24 -24 29 -41 6 -16 13 -30 16 -30 7 0 -1 55 -14 96 -7 19 -10 41
-7 48 7 17 -8 42 -17 28z"/>
<path d="M5981 924 c0 -11 3 -14 6 -6 3 7 2 16 -1 19 -3 4 -6 -2 -5 -13z"/>
<path d="M5850 900 c0 -5 5 -10 10 -10 6 0 10 5 10 10 0 6 -4 10 -10 10 -5 0
-10 -4 -10 -10z"/>
<path d="M5652 865 c0 -16 2 -22 5 -12 2 9 2 23 0 30 -3 6 -5 -1 -5 -18z"/>
<path d="M5890 855 c-9 -11 -9 -23 -2 -45 15 -41 42 -79 43 -60 0 8 5 4 10 -9
5 -13 12 -21 15 -18 10 10 -16 47 -34 47 -13 0 -14 2 -4 8 10 7 10 15 2 36
-14 39 -13 51 5 36 12 -10 15 -10 15 2 0 18 -36 20 -50 3z"/>
<path d="M5950 840 c0 -11 5 -20 10 -20 6 0 10 9 10 20 0 11 -4 20 -10 20 -5
0 -10 -9 -10 -20z"/>
<path d="M5981 844 c0 -11 3 -14 6 -6 3 7 2 16 -1 19 -3 4 -6 -2 -5 -13z"/>
<path d="M6584 849 c-5 -8 -3 -9 6 -4 7 4 16 2 22 -6 8 -12 9 -12 6 0 -6 20
-24 25 -34 10z"/>
<path d="M5975 809 c-10 -15 3 -25 16 -12 7 7 7 13 1 17 -6 3 -14 1 -17 -5z"/>
<path d="M5730 795 c0 -14 -3 -16 -11 -8 -8 8 -20 8 -36 2 -13 -5 -27 -8 -31
-8 -21 3 -23 -3 -7 -21 16 -17 16 -24 6 -47 -9 -20 -14 -24 -21 -14 -5 10 -10
3 -15 -20 -4 -19 -14 -43 -21 -53 -12 -18 -11 -48 3 -86 8 -19 9 -29 12 -65
l3 -30 10 28 c6 18 7 41 1 65 -8 30 -6 40 7 55 10 10 15 27 13 41 -3 13 -1 32
5 42 9 16 10 15 17 -6 5 -15 3 -25 -6 -31 -7 -4 -10 -11 -6 -15 4 -4 2 -13 -5
-21 -9 -11 -4 -20 23 -44 19 -16 39 -44 46 -62 l11 -32 2 30 c1 17 2 35 1 40
-1 6 5 2 13 -8 16 -21 26 -23 36 -8 9 15 40 3 40 -15 0 -13 13 -19 35 -14 6 1
7 -2 3 -6 -5 -4 1 -12 11 -18 10 -6 29 -17 42 -25 l24 -14 -19 22 c-19 21 -19
21 -1 15 13 -5 16 -4 11 4 -4 7 -12 12 -18 12 -5 0 -24 11 -42 25 -17 14 -36
29 -41 33 -6 5 -16 7 -23 4 -6 -2 -15 3 -18 12 -3 9 -10 16 -16 16 -14 0 -38
27 -31 34 4 3 1 6 -5 6 -6 0 -14 10 -18 23 -3 12 -15 34 -25 49 -21 28 -25 53
-9 43 7 -4 9 2 5 18 -6 21 -3 24 17 23 13 0 29 -7 37 -14 7 -7 20 -11 27 -8 9
3 14 -2 14 -13 0 -10 8 -25 17 -32 15 -12 16 -12 8 1 -8 13 -7 13 8 1 15 -12
17 -10 17 18 0 29 -21 44 -33 24 -2 -5 -2 -2 0 5 1 8 -4 20 -12 28 -8 9 -15
12 -15 8 0 -4 -9 1 -20 11 -19 17 -20 17 -20 0z m-27 -194 c20 -35 21 -42 5
-38 -23 4 -51 67 -30 67 4 0 15 -13 25 -29z"/>
<path d="M2225 770 c-3 -11 -13 -20 -21 -20 -8 0 -12 -4 -9 -10 3 -5 -5 -15
-19 -21 -19 -9 -22 -14 -13 -24 9 -10 14 -9 24 4 11 14 13 14 14 1 1 -8 4 -1
8 15 6 28 7 29 13 7 4 -14 0 -28 -10 -38 -8 -9 -11 -19 -6 -22 13 -10 18 -45
5 -37 -15 8 -14 -8 1 -23 8 -8 8 -15 -3 -28 -12 -16 -12 -17 4 -11 10 4 17 2
18 -6 2 -22 -2 -71 -7 -100 -5 -26 -7 -27 -23 -13 -20 18 -61 18 -54 -1 3 -7
0 -13 -6 -13 -6 0 -11 -4 -11 -10 0 -5 8 -10 17 -10 15 0 14 -2 -3 -15 -11 -9
-14 -15 -6 -16 16 -2 24 -4 44 -13 16 -7 16 -10 1 -32 -8 -13 -20 -24 -25 -24
-6 0 -5 6 2 15 15 18 -1 20 -18 3 -9 -9 -12 -8 -12 4 0 9 6 18 13 21 6 3 2 4
-11 4 -17 -1 -22 -6 -19 -19 3 -10 1 -16 -4 -12 -5 3 -9 1 -9 -5 0 -6 -7 -8
-15 -5 -9 4 -15 0 -15 -9 0 -8 -6 -17 -12 -19 -9 -3 -8 -11 4 -29 15 -23 14
-26 -3 -48 -10 -12 -23 -20 -29 -16 -19 12 -37 -21 -38 -67 -1 -38 2 -46 16
-43 9 2 20 4 24 4 4 1 3 13 -3 27 -7 21 -6 31 8 48 33 37 42 47 48 46 3 -1 18
4 34 11 28 12 28 13 10 33 -24 25 -17 32 13 12 12 -8 35 -14 51 -12 15 2 27
-1 27 -6 0 -5 14 2 31 16 17 14 37 26 45 26 8 0 14 5 14 11 0 6 -7 9 -14 6
-11 -5 -14 1 -11 24 2 16 0 29 -4 29 -4 0 -8 6 -8 13 0 6 -4 20 -8 30 -10 24
5 21 39 -8 36 -31 56 -32 56 -2 0 31 -42 71 -67 63 -17 -5 -18 -2 -15 29 2 19
8 38 13 41 12 7 11 24 -1 24 -5 0 -10 -8 -10 -17 0 -26 -17 -3 -24 32 -4 19 0
37 10 50 15 20 15 20 30 1 15 -22 19 -21 28 11 4 12 2 24 -4 28 -5 3 -10 -2
-10 -12 0 -11 -3 -14 -8 -7 -4 6 -16 14 -26 17 -10 4 -16 10 -13 14 4 3 2 12
-4 20 -7 8 -8 13 -1 13 7 0 6 8 -1 24 -7 13 -14 23 -18 20 -3 -2 -4 8 -1 21 5
30 -4 33 -13 5z m-10 -469 c-6 -5 -25 10 -25 20 0 5 6 4 14 -3 8 -7 12 -15 11
-17z m-191 -142 c-9 -11 -20 -16 -23 -13 -3 3 2 11 11 18 10 7 14 17 10 21 -4
5 -1 5 6 1 11 -6 10 -12 -4 -27z"/>
<path d="M1880 729 c0 -5 5 -7 10 -4 6 3 10 8 10 11 0 2 -4 4 -10 4 -5 0 -10
-5 -10 -11z"/>
<path d="M1830 719 c0 -5 -6 -9 -12 -9 -7 0 -21 -14 -31 -31 -13 -23 -14 -30
-4 -26 10 4 13 -2 9 -21 -5 -24 -6 -24 -18 -7 -8 10 -14 14 -14 8 0 -6 6 -16
14 -22 11 -10 21 -3 51 33 22 27 34 50 29 57 -4 8 -3 9 4 5 7 -4 12 -1 12 6 0
8 -9 14 -20 15 -11 1 -20 -2 -20 -8z"/>
<path d="M5860 720 c0 -5 7 -10 16 -10 8 0 12 5 9 10 -3 6 -10 10 -16 10 -5 0
-9 -4 -9 -10z"/>
<path d="M2029 660 c-19 -16 -29 -30 -22 -30 6 0 15 5 18 10 3 6 11 10 16 10
6 0 7 -5 3 -11 -4 -7 2 -9 17 -7 17 2 24 9 23 27 0 35 -16 36 -55 1z"/>
<path d="M5837 660 c3 -12 0 -20 -7 -20 -6 0 -18 -7 -26 -15 -9 -8 -12 -15 -7
-15 4 0 18 -3 31 -6 17 -5 22 -2 22 12 0 17 1 16 15 -2 21 -28 18 -4 -5 34
-23 37 -30 41 -23 12z"/>
<path d="M1949 653 c-13 -16 -12 -17 4 -4 16 13 21 21 13 21 -2 0 -10 -8 -17
-17z"/>
<path d="M5910 666 c0 -2 7 -9 15 -16 13 -11 14 -10 9 4 -5 14 -24 23 -24 12z"/>
<path d="M2100 640 c0 -11 4 -20 8 -20 4 0 8 9 9 20 1 11 -2 20 -8 20 -5 0 -9
-9 -9 -20z"/>
<path d="M1834 612 c5 -8 -4 -19 -23 -30 -40 -22 -40 -35 -1 -16 37 19 46 33
30 47 -10 9 -11 9 -6 -1z"/>
<path d="M2270 599 c0 -5 5 -7 10 -4 6 3 10 8 10 11 0 2 -4 4 -10 4 -5 0 -10
-5 -10 -11z"/>
<path d="M5850 591 c0 -11 31 -24 39 -16 3 3 -1 10 -9 15 -19 12 -30 12 -30 1z"/>
<path d="M2100 563 c0 -13 5 -23 10 -23 13 0 13 11 0 30 -8 12 -10 11 -10 -7z"/>
<path d="M5830 576 c0 -2 8 -10 18 -17 15 -13 16 -12 3 4 -13 16 -21 21 -21
13z"/>
<path d="M2150 560 c0 -5 5 -10 11 -10 5 0 7 5 4 10 -3 6 -8 10 -11 10 -2 0
-4 -4 -4 -10z"/>
<path d="M1795 539 c-4 -6 -5 -12 -2 -15 2 -3 7 2 10 11 7 17 1 20 -8 4z"/>
<path d="M5860 536 c0 -2 8 -10 18 -17 15 -13 16 -12 3 4 -13 16 -21 21 -21
13z"/>
<path d="M1145 494 c-29 -42 -45 -75 -45 -88 0 -6 6 -2 12 9 17 29 26 33 69
28 26 -4 39 -2 39 6 0 7 -4 10 -9 6 -5 -3 -12 -1 -16 5 -4 6 5 10 22 10 l28 0
-25 14 c-21 11 -28 11 -43 -2 -9 -8 -20 -12 -24 -8 -4 4 -1 11 6 15 7 5 12 14
9 21 -2 8 -12 1 -23 -16z"/>
<path d="M5690 475 c0 -8 2 -15 4 -15 2 0 6 7 10 15 3 8 1 15 -4 15 -6 0 -10
-7 -10 -15z"/>
<path d="M6091 457 c-17 -21 35 -43 54 -23 12 11 10 15 -11 25 -31 14 -29 14
-43 -2z"/>
<path d="M2028 443 c-41 -21 -37 -46 6 -41 27 3 37 -1 46 -17 9 -18 10 -16 6
10 -2 16 0 38 5 47 8 15 6 18 -13 17 -13 -1 -35 -8 -50 -16z"/>
<path d="M5850 450 c0 -5 7 -10 16 -10 8 0 12 5 9 10 -3 6 -10 10 -16 10 -5 0
-9 -4 -9 -10z"/>
<path d="M1647 443 c-4 -3 -7 -11 -7 -17 0 -6 5 -5 12 2 6 6 9 14 7 17 -3 3
-9 2 -12 -2z"/>
<path d="M5640 418 c12 -41 22 -50 40 -38 12 8 11 11 -7 16 -13 4 -23 14 -23
25 0 10 -4 20 -9 24 -6 3 -6 -7 -1 -27z"/>
<path d="M5616 417 c3 -10 9 -15 12 -12 3 3 0 11 -7 18 -10 9 -11 8 -5 -6z"/>
<path d="M5847 423 c-13 -3 -16 -11 -11 -31 l5 -27 -16 25 -16 25 7 -25 c10
-34 54 -67 54 -40 0 7 6 7 20 0 11 -6 20 -17 20 -24 0 -8 7 -17 16 -20 26 -10
28 -7 8 15 -16 17 -16 22 -4 29 11 7 18 4 24 -10 13 -29 26 -24 26 10 0 17 -4
30 -8 30 -5 0 -19 9 -32 20 -13 12 -30 18 -37 16 -7 -3 -13 -1 -13 4 0 10 -12
11 -43 3z"/>
<path d="M6170 422 c0 -4 14 -13 30 -19 34 -13 39 -7 13 13 -20 15 -43 18 -43
6z"/>
<path d="M6876 417 c3 -10 9 -15 12 -12 3 3 0 11 -7 18 -10 9 -11 8 -5 -6z"/>
<path d="M5610 367 c0 -27 13 -36 26 -16 3 6 -1 18 -10 27 -15 15 -16 14 -16
-11z"/>
<path d="M5706 373 c-10 -11 -7 -31 7 -36 7 -3 13 3 14 14 2 20 -10 33 -21 22z"/>
<path d="M5790 355 c0 -8 5 -15 10 -15 6 0 10 7 10 15 0 8 -4 15 -10 15 -5 0
-10 -7 -10 -15z"/>
<path d="M6000 366 c0 -2 7 -9 15 -16 12 -10 15 -10 15 4 0 9 -7 16 -15 16 -8
0 -15 -2 -15 -4z"/>
<path d="M1070 350 c0 -5 5 -10 10 -10 6 0 10 5 10 10 0 6 -4 10 -10 10 -5 0
-10 -4 -10 -10z"/>
<path d="M6047 353 c-12 -12 -7 -22 8 -17 8 4 15 10 15 15 0 11 -14 12 -23 2z"/>
<path d="M2070 339 c0 -5 5 -7 10 -4 6 3 10 8 10 11 0 2 -4 4 -10 4 -5 0 -10
-5 -10 -11z"/>
<path d="M2300 334 c1 -19 28 -45 35 -34 4 6 5 12 4 13 -2 2 -12 9 -21 16 -10
7 -18 10 -18 5z"/>
<path d="M6505 330 c-3 -5 -1 -10 4 -10 6 0 11 5 11 10 0 6 -2 10 -4 10 -3 0
-8 -4 -11 -10z"/>
<path d="M1854 270 c0 -11 4 -20 8 -20 4 0 8 9 8 20 0 11 -4 20 -8 20 -4 0 -8
-9 -8 -20z"/>
<path d="M2016 271 c-4 -6 -15 -11 -25 -11 -19 0 -48 -35 -80 -97 -26 -53 -26
-56 1 -47 20 6 21 5 10 -9 -10 -11 -10 -17 -2 -22 19 -12 36 13 24 33 -20 33
12 109 51 121 38 12 44 17 36 30 -6 9 -11 10 -15 2z"/>
<path d="M5763 268 c-13 -6 -23 -17 -23 -24 0 -19 -31 -22 -67 -7 -48 19 -59
16 -36 -9 12 -13 27 -42 34 -65 6 -23 15 -40 20 -38 4 3 1 19 -8 36 -16 31 -9
55 8 29 7 -13 10 -13 18 -1 6 9 11 10 15 2 7 -10 37 6 88 48 17 13 17 15 0 27
-20 16 -21 16 -49 2z"/>
<path d="M6495 270 c-3 -5 1 -10 9 -10 9 0 16 5 16 10 0 6 -4 10 -9 10 -6 0
-13 -4 -16 -10z"/>
<path d="M6360 260 c0 -5 5 -10 10 -10 6 0 10 5 10 10 0 6 -4 10 -10 10 -5 0
-10 -4 -10 -10z"/>
<path d="M1155 220 c3 -5 11 -10 16 -10 6 0 7 5 4 10 -3 6 -11 10 -16 10 -6 0
-7 -4 -4 -10z"/>
<path d="M6568 223 c7 -3 16 -2 19 1 4 3 -2 6 -13 5 -11 0 -14 -3 -6 -6z"/>
<path d="M6628 193 c7 -3 16 -2 19 1 4 3 -2 6 -13 5 -11 0 -14 -3 -6 -6z"/>
<path d="M1175 180 c-3 -5 1 -10 9 -10 9 0 16 5 16 10 0 6 -4 10 -9 10 -6 0
-13 -4 -16 -10z"/>
<path d="M1643 174 c-16 -17 -5 -23 27 -14 24 6 24 7 5 17 -15 8 -23 8 -32 -3z"/>
<path d="M1710 180 c-9 -6 -10 -10 -3 -10 6 0 15 5 18 10 8 12 4 12 -15 0z"/>
<path d="M5945 163 c18 -38 19 -47 3 -37 -7 4 -8 3 -4 -5 4 -6 11 -9 15 -7 4
3 6 -8 3 -23 -2 -16 1 -31 6 -35 6 -4 8 2 5 14 -3 11 0 20 6 20 5 0 8 6 5 14
-4 11 1 13 24 10 26 -4 30 -2 25 15 -3 11 -14 28 -25 38 -19 17 -19 17 -15 -7
2 -14 2 -19 0 -12 -3 7 -10 11 -16 9 -6 -2 -20 6 -30 17 -18 21 -18 20 -2 -11z"/>
<path d="M5910 151 c0 -6 4 -13 10 -16 6 -3 7 1 4 9 -7 18 -14 21 -14 7z"/>
<path d="M5748 133 c-40 -17 -48 -30 -23 -39 15 -6 50 15 40 24 -2 3 3 11 13
18 21 17 17 16 -30 -3z"/>
<path d="M5854 115 c-16 -12 -16 -14 -3 -15 9 0 22 7 29 15 16 19 0 19 -26 0z"/>
<path d="M2137 104 c-3 -3 3 -23 14 -42 10 -20 19 -43 19 -50 0 -21 17 -5 24
24 9 33 -37 88 -57 68z"/>
<path d="M5693 94 c3 -11 9 -36 13 -56 6 -35 9 -38 40 -38 19 0 34 5 34 11 0
7 8 18 17 25 28 20 8 27 -26 9 -38 -19 -47 -15 -56 25 -4 16 -11 33 -17 36 -6
4 -8 -1 -5 -12z"/>
<path d="M2050 87 c0 -7 -12 -14 -27 -15 -15 -1 -32 -7 -38 -14 -7 -8 -7 -9 2
-4 6 3 13 0 16 -6 3 -10 9 -11 26 0 28 17 36 15 17 -4 -9 -8 -16 -23 -16 -32
0 -10 3 -13 8 -7 10 16 62 17 62 2 0 -8 4 -7 10 3 6 10 10 11 10 3 0 -7 8 -13
17 -13 13 0 9 8 -15 30 -18 17 -38 30 -43 30 -6 0 -7 9 -4 20 5 14 2 20 -9 20
-9 0 -16 -6 -16 -13z"/>
<path d="M2097 93 c-8 -7 11 -33 23 -33 5 0 6 9 3 20 -5 20 -15 25 -26 13z"/>
<path d="M1670 75 c0 -8 4 -15 10 -15 5 0 7 7 4 15 -4 8 -8 15 -10 15 -2 0 -4
-7 -4 -15z"/>
<path d="M1705 71 c-3 -5 -1 -12 5 -16 5 -3 10 1 10 9 0 18 -6 21 -15 7z"/>
<path d="M5860 45 c0 -8 6 -15 13 -15 6 0 22 -3 35 -6 18 -5 21 -3 16 10 -4
11 -13 15 -25 11 -11 -4 -19 -2 -19 4 0 6 -4 11 -10 11 -5 0 -10 -7 -10 -15z"/>
<path d="M6520 45 c7 -8 17 -15 22 -15 5 0 3 7 -6 15 -8 8 -18 15 -22 15 -3 0
-1 -7 6 -15z"/>
<path d="M1768 25 c6 -33 43 -35 41 -2 -1 16 -2 18 -6 5 -5 -22 -23 -24 -23
-4 0 8 -4 17 -9 20 -4 3 -6 -6 -3 -19z"/>
<path d="M1690 21 c0 -25 6 -27 13 -6 4 8 2 17 -3 20 -6 4 -10 -3 -10 -14z"/>
<path d="M1920 29 c0 -5 9 -9 20 -9 11 0 20 2 20 4 0 2 -9 6 -20 9 -11 3 -20
1 -20 -4z"/>
<path d="M6077 21 c-4 -17 -3 -21 5 -13 5 5 8 16 6 23 -3 8 -7 3 -11 -10z"/>
<path d="M6181 14 c0 -11 3 -14 6 -6 3 7 2 16 -1 19 -3 4 -6 -2 -5 -13z"/>
<path d="M1913 3 c9 -2 25 -2 35 0 9 3 1 5 -18 5 -19 0 -27 -2 -17 -5z"/>
<path d="M1988 3 c6 -2 18 -2 25 0 6 3 1 5 -13 5 -14 0 -19 -2 -12 -5z"/>
</g>
</svg>
